<svg xmlns="http://www.w3.org/2000/svg" width="2400" height="600" viewBox="0 0 2400 600" role="img" aria-label="The four-phase CSTL process: Assessment one to two days, Mobilization two to three days, Deployment with the team on site for as long as the gap lasts, and Demobilization two to three days.">
<title>The four-phase CSTL process</title>
<rect x="120" y="236" width="2160" height="86" rx="10" fill="#DDE5E9"/>
<path d="M130,236 H447.3076923076923 V322 H130 A10,10 0 0 1 120,312 V246 A10,10 0 0 1 130,236 Z" fill="#7DA2C0"/>
<rect x="285.1538461538462" y="254" width="2" height="50" fill="#FFFFFF" opacity="0.5"/>
<path d="M457.3076923076923,236 H945.7692307692307 V322 H457.3076923076923 V236 Z" fill="#3A72A0"/>
<rect x="617.4615384615385" y="254" width="2" height="50" fill="#FFFFFF" opacity="0.5"/>
<rect x="783.6153846153846" y="254" width="2" height="50" fill="#FFFFFF" opacity="0.5"/>
<path d="M955.7692307692307,236 H1776.5384615384614 V322 H955.7692307692307 V236 Z" fill="#E8701A"/>
<path d="M1786.5384615384614,236 H2270.0 A10,10 0 0 1 2280.0,246 V312 A10,10 0 0 1 2270.0,322 H1786.5384615384614 V236 Z" fill="#7DA2C0"/>
<rect x="1946.6923076923076" y="254" width="2" height="50" fill="#FFFFFF" opacity="0.5"/>
<rect x="2112.846153846154" y="254" width="2" height="50" fill="#FFFFFF" opacity="0.5"/>
<path d="M1385.3846153846155,236 l22,0 l-32,86 l-22,0 Z" fill="#E4ECEF"/>
<path d="M1423.3846153846155,236 l22,0 l-32,86 l-22,0 Z" fill="#E4ECEF"/>
<rect x="948.7692307692307" y="178" width="4" height="144" fill="#AE510C"/>
<rect x="926.7692307692307" y="120" width="302.48999999999995" height="60" rx="6" fill="#AE510C"/>
<path d="M948.7692307692307,180 l0,-8 l16,0 Z" fill="#AE510C"/>
<path d="M951.01 142.27H956.56V160.00H960.10V142.27H965.65V139.00H951.01Z M975.22 160.00H985.81V156.88H975.22ZM975.22 142.12H985.81V139.00H975.22ZM975.22 150.28H985.21V147.22H975.22ZM973.03 139.00V160.00H976.51V139.00Z M997.48 154.60H1008.58L1007.92 151.60H998.17ZM1002.97 144.94 1006.33 152.74 1006.39 153.61 1009.24 160.00H1013.26L1002.97 137.83L992.71 160.00H996.70L999.61 153.43L999.67 152.65Z M1024.36 147.22 1030.75 158.05 1037.17 147.22 1038.61 160.00H1042.27L1039.39 137.95L1030.75 152.20L1022.14 137.95L1019.26 160.00H1022.92Z M1066.90 149.50Q1066.90 147.34 1067.83 145.64Q1068.76 143.95 1070.36 142.99Q1071.97 142.03 1074.04 142.03Q1076.17 142.03 1077.77 142.99Q1079.38 143.95 1080.28 145.64Q1081.18 147.34 1081.18 149.50Q1081.18 151.66 1080.26 153.34Q1079.35 155.02 1077.74 156.00Q1076.14 156.97 1074.04 156.97Q1071.97 156.97 1070.36 156.00Q1068.76 155.02 1067.83 153.34Q1066.90 151.66 1066.90 149.50ZM1063.15 149.50Q1063.15 151.84 1063.96 153.85Q1064.77 155.86 1066.24 157.33Q1067.71 158.80 1069.70 159.62Q1071.70 160.45 1074.04 160.45Q1076.44 160.45 1078.42 159.62Q1080.40 158.80 1081.87 157.33Q1083.34 155.86 1084.15 153.85Q1084.96 151.84 1084.96 149.50Q1084.96 147.13 1084.15 145.15Q1083.34 143.17 1081.85 141.72Q1080.37 140.26 1078.39 139.44Q1076.41 138.61 1074.04 138.61Q1071.73 138.61 1069.73 139.44Q1067.74 140.26 1066.25 141.72Q1064.77 143.17 1063.96 145.15Q1063.15 147.13 1063.15 149.50Z M1108.57 139.00V153.10L1093.24 137.95V160.00H1096.72V145.90L1112.05 161.05V139.00Z M1136.71 153.22 1134.07 155.08Q1134.76 156.52 1135.94 157.75Q1137.13 158.98 1138.70 159.71Q1140.28 160.45 1142.11 160.45Q1143.46 160.45 1144.70 160.01Q1145.95 159.58 1146.94 158.79Q1147.93 157.99 1148.51 156.82Q1149.10 155.65 1149.10 154.18Q1149.10 152.80 1148.62 151.76Q1148.14 150.73 1147.37 149.98Q1146.61 149.23 1145.66 148.72Q1144.72 148.21 1143.76 147.88Q1142.08 147.28 1141.03 146.71Q1139.98 146.14 1139.48 145.50Q1138.99 144.85 1138.99 144.04Q1138.99 143.14 1139.68 142.46Q1140.37 141.79 1141.84 141.79Q1142.89 141.79 1143.68 142.19Q1144.48 142.60 1145.08 143.27Q1145.68 143.95 1146.10 144.73L1148.95 143.11Q1148.44 142.00 1147.48 140.98Q1146.52 139.96 1145.14 139.29Q1143.76 138.61 1141.90 138.61Q1140.01 138.61 1138.52 139.33Q1137.04 140.05 1136.17 141.32Q1135.30 142.60 1135.30 144.28Q1135.30 145.75 1135.87 146.78Q1136.44 147.82 1137.31 148.52Q1138.18 149.23 1139.14 149.69Q1140.10 150.16 1140.88 150.43Q1142.20 150.91 1143.22 151.41Q1144.24 151.90 1144.79 152.61Q1145.35 153.31 1145.35 154.45Q1145.35 155.71 1144.45 156.49Q1143.55 157.27 1142.11 157.27Q1140.94 157.27 1139.96 156.76Q1138.99 156.25 1138.19 155.35Q1137.40 154.45 1136.71 153.22Z M1157.50 139.00V160.00H1161.10V139.00Z M1168.45 142.27H1174.00V160.00H1177.54V142.27H1183.09V139.00H1168.45Z M1192.66 160.00H1203.25V156.88H1192.66ZM1192.66 142.12H1203.25V139.00H1192.66ZM1192.66 150.28H1202.65V147.22H1192.66ZM1190.47 139.00V160.00H1193.95V139.00Z" fill="#FFFFFF"/>
<path d="M126.03 389.80V408.00H129.10V389.80ZM127.85 392.50H131.51Q133.10 392.50 134.06 393.25Q135.02 393.99 135.02 395.44Q135.02 396.90 134.06 397.65Q133.10 398.41 131.51 398.41H127.85V401.11H131.51Q133.52 401.11 134.97 400.42Q136.43 399.73 137.25 398.46Q138.07 397.18 138.07 395.44Q138.07 393.70 137.25 392.44Q136.43 391.18 134.97 390.49Q133.52 389.80 131.51 389.80H127.85Z M146.96 399.65H159.96V396.82H146.96ZM157.96 389.80V408.00H161.02V389.80ZM145.74 389.80V408.00H148.80V389.80Z M171.94 403.32H181.56L180.99 400.72H172.54ZM176.70 394.95 179.61 401.71 179.67 402.46 182.14 408.00H185.62L176.70 388.79L167.81 408.00H171.27L173.79 402.31L173.84 401.63Z M193.58 402.12 191.29 403.74Q191.89 404.98 192.91 406.05Q193.94 407.12 195.31 407.75Q196.67 408.39 198.26 408.39Q199.43 408.39 200.50 408.01Q201.58 407.64 202.44 406.95Q203.30 406.26 203.81 405.24Q204.31 404.23 204.31 402.96Q204.31 401.76 203.90 400.86Q203.48 399.97 202.82 399.32Q202.16 398.67 201.34 398.22Q200.52 397.78 199.69 397.50Q198.23 396.98 197.32 396.48Q196.41 395.99 195.98 395.43Q195.55 394.87 195.55 394.17Q195.55 393.39 196.15 392.80Q196.75 392.22 198.02 392.22Q198.93 392.22 199.62 392.57Q200.31 392.92 200.83 393.50Q201.35 394.09 201.71 394.77L204.18 393.36Q203.74 392.40 202.91 391.52Q202.08 390.63 200.88 390.05Q199.69 389.46 198.07 389.46Q196.44 389.46 195.15 390.09Q193.86 390.71 193.11 391.81Q192.35 392.92 192.35 394.38Q192.35 395.65 192.85 396.55Q193.34 397.44 194.10 398.06Q194.85 398.67 195.68 399.07Q196.51 399.47 197.19 399.71Q198.33 400.12 199.22 400.55Q200.10 400.98 200.58 401.59Q201.06 402.20 201.06 403.19Q201.06 404.28 200.28 404.96Q199.50 405.63 198.26 405.63Q197.24 405.63 196.40 405.19Q195.55 404.75 194.86 403.97Q194.17 403.19 193.58 402.12Z M214.01 408.00H223.19V405.30H214.01ZM214.01 392.50H223.19V389.80H214.01ZM214.01 399.58H222.67V396.92H214.01ZM212.11 389.80V408.00H215.13V389.80Z M244.04 394.06 248.28 392.89V408.00H251.30V389.51L244.04 391.15Z" fill="#4F6472"/>
<path d="M161.10 470.00H147.11V463.84H149.92L148.62 460.28H136.69L135.23 463.84H138.53V470.00H124.70V463.84H127.89L137.93 441.06H133.07V434.90H145.11L157.75 463.84H161.10ZM146.68 455.10 143.01 445.21H142.68L138.74 455.10Z M184.59 462.55Q184.59 466.60 181.38 468.57Q178.16 470.54 173.03 470.54Q170.39 470.54 167.71 469.97Q165.04 469.41 162.61 468.16L163.58 461.36L168.98 461.95V464.98Q169.95 465.30 171.03 465.38Q172.11 465.46 172.65 465.46Q174.65 465.46 176.11 464.82Q177.57 464.17 177.57 462.87Q177.57 461.31 175.35 460.82Q173.14 460.33 170.22 459.85Q167.31 459.36 165.09 457.85Q162.88 456.34 162.88 452.72Q162.88 448.24 166.36 446.70Q169.85 445.16 173.57 445.16Q178.43 445.16 182.70 447.37L183.29 453.58L177.89 454.18L177.46 450.78Q175.68 450.18 173.63 450.18Q172.28 450.18 171.33 450.75Q170.39 451.32 170.39 452.50Q170.39 454.07 172.52 454.58Q174.65 455.10 177.49 455.58Q180.32 456.07 182.46 457.55Q184.59 459.04 184.59 462.55Z M209.37 462.55Q209.37 466.60 206.16 468.57Q202.95 470.54 197.82 470.54Q195.17 470.54 192.50 469.97Q189.83 469.41 187.40 468.16L188.37 461.36L193.77 461.95V464.98Q194.74 465.30 195.82 465.38Q196.90 465.46 197.44 465.46Q199.44 465.46 200.90 464.82Q202.35 464.17 202.35 462.87Q202.35 461.31 200.14 460.82Q197.93 460.33 195.01 459.85Q192.09 459.36 189.88 457.85Q187.67 456.34 187.67 452.72Q187.67 448.24 191.15 446.70Q194.63 445.16 198.36 445.16Q203.22 445.16 207.48 447.37L208.08 453.58L202.68 454.18L202.25 450.78Q200.46 450.18 198.41 450.18Q197.06 450.18 196.12 450.75Q195.17 451.32 195.17 452.50Q195.17 454.07 197.31 454.58Q199.44 455.10 202.27 455.58Q205.11 456.07 207.24 457.55Q209.37 459.04 209.37 462.55Z M235.67 462.33Q235.40 465.57 232.49 468.06Q229.57 470.54 224.33 470.54Q218.88 470.54 215.34 467.46Q211.80 464.38 211.80 458.28Q211.80 452.67 215.02 448.91Q218.23 445.16 224.01 445.16Q229.08 445.16 232.24 448.08Q235.40 450.99 235.46 455.74Q235.46 457.53 235.08 459.25H219.09Q219.69 465.03 224.82 465.03Q227.63 465.03 228.62 463.68Q229.62 462.33 229.84 461.25ZM228.27 455.20Q228.49 453.37 227.49 451.75Q226.49 450.13 224.01 450.13Q221.85 450.13 220.66 451.53Q219.47 452.94 219.15 455.20Z M260.24 462.55Q260.24 466.60 257.03 468.57Q253.82 470.54 248.69 470.54Q246.04 470.54 243.37 469.97Q240.69 469.41 238.26 468.16L239.24 461.36L244.64 461.95V464.98Q245.61 465.30 246.69 465.38Q247.77 465.46 248.31 465.46Q250.31 465.46 251.76 464.82Q253.22 464.17 253.22 462.87Q253.22 461.31 251.01 460.82Q248.79 460.33 245.88 459.85Q242.96 459.36 240.75 457.85Q238.53 456.34 238.53 452.72Q238.53 448.24 242.02 446.70Q245.50 445.16 249.23 445.16Q254.09 445.16 258.35 447.37L258.95 453.58L253.55 454.18L253.11 450.78Q251.33 450.18 249.28 450.18Q247.93 450.18 246.99 450.75Q246.04 451.32 246.04 452.50Q246.04 454.07 248.17 454.58Q250.31 455.10 253.14 455.58Q255.98 456.07 258.11 457.55Q260.24 459.04 260.24 462.55Z M285.03 462.55Q285.03 466.60 281.82 468.57Q278.60 470.54 273.47 470.54Q270.83 470.54 268.15 469.97Q265.48 469.41 263.05 468.16L264.02 461.36L269.42 461.95V464.98Q270.39 465.30 271.47 465.38Q272.55 465.46 273.09 465.46Q275.09 465.46 276.55 464.82Q278.01 464.17 278.01 462.87Q278.01 461.31 275.79 460.82Q273.58 460.33 270.66 459.85Q267.75 459.36 265.53 457.85Q263.32 456.34 263.32 452.72Q263.32 448.24 266.80 446.70Q270.29 445.16 274.01 445.16Q278.87 445.16 283.14 447.37L283.73 453.58L278.33 454.18L277.90 450.78Q276.12 450.18 274.07 450.18Q272.72 450.18 271.77 450.75Q270.83 451.32 270.83 452.50Q270.83 454.07 272.96 454.58Q275.09 455.10 277.93 455.58Q280.76 456.07 282.89 457.55Q285.03 459.04 285.03 462.55Z M332.98 470.00H322.77V456.28Q322.77 453.15 321.72 451.80Q320.67 450.45 318.62 450.45Q316.13 450.45 315.02 452.07Q313.92 453.69 313.92 456.23V464.76H317.16V470.00H306.95V456.28Q306.95 453.15 305.90 451.80Q304.85 450.45 302.79 450.45Q300.26 450.45 299.18 452.07Q298.10 453.69 298.10 456.23V464.76H302.74V470.00H287.89V464.76H291.13V450.94H287.94V445.65H298.10V449.32Q300.42 445.16 305.49 445.16Q308.14 445.16 310.35 446.46Q312.57 447.75 313.43 450.40Q315.59 445.16 321.37 445.16Q324.66 445.16 327.20 447.21Q329.74 449.26 329.74 453.58V464.76H332.98Z M358.63 462.33Q358.36 465.57 355.44 468.06Q352.53 470.54 347.29 470.54Q341.84 470.54 338.30 467.46Q334.76 464.38 334.76 458.28Q334.76 452.67 337.98 448.91Q341.19 445.16 346.97 445.16Q352.04 445.16 355.20 448.08Q358.36 450.99 358.41 455.74Q358.41 457.53 358.04 459.25H342.05Q342.65 465.03 347.78 465.03Q350.58 465.03 351.58 463.68Q352.58 462.33 352.80 461.25ZM351.23 455.20Q351.45 453.37 350.45 451.75Q349.45 450.13 346.97 450.13Q344.81 450.13 343.62 451.53Q342.43 452.94 342.11 455.20Z M391.08 470.00H377.64V464.76H380.88V456.28Q380.88 453.15 379.83 451.80Q378.77 450.45 376.72 450.45Q374.24 450.45 372.89 451.99Q371.54 453.53 371.48 456.01V464.76H374.72V470.00H361.28V464.76H364.52V450.94H361.01V445.65H371.48V449.37Q373.91 445.16 379.31 445.16Q382.77 445.16 385.31 447.21Q387.84 449.26 387.84 453.58V464.76H391.08Z M413.66 462.44Q413.12 466.65 410.74 468.60Q408.36 470.54 404.58 470.54Q400.53 470.54 398.02 468.51Q395.51 466.49 395.51 462.71V450.61H392.06V445.65H395.51V438.25H402.48V445.65H411.23V450.61H402.48V461.52Q402.48 464.71 405.39 464.71Q406.04 464.71 407.15 464.14Q408.26 463.57 408.58 460.87Z" fill="#08355A"/>
<path d="M126.40 503.14 131.05 501.76V520.00H133.60V498.70L126.40 500.50Z M139.60 514.00H157.60V511.75H139.60Z M160.30 520.00H175.12V517.60H165.55L172.24 510.79Q173.47 509.53 174.25 507.94Q175.03 506.35 175.03 504.73Q175.03 503.77 174.64 502.72Q174.25 501.67 173.44 500.75Q172.63 499.84 171.37 499.25Q170.11 498.67 168.37 498.67Q166.21 498.67 164.66 499.62Q163.12 500.56 162.31 502.25Q161.50 503.95 161.50 506.20H164.05Q164.05 504.61 164.56 503.46Q165.07 502.30 166.04 501.69Q167.02 501.07 168.37 501.07Q169.33 501.07 170.08 501.40Q170.83 501.73 171.35 502.27Q171.88 502.81 172.15 503.47Q172.42 504.13 172.42 504.82Q172.42 505.66 172.16 506.43Q171.91 507.19 171.41 507.93Q170.92 508.66 170.23 509.41Z M198.37 496.60V520.00H200.77V496.60ZM186.82 513.10Q186.82 515.32 187.75 516.94Q188.68 518.56 190.24 519.43Q191.80 520.30 193.66 520.30Q195.40 520.30 196.69 519.43Q197.98 518.56 198.71 516.94Q199.45 515.32 199.45 513.10Q199.45 510.85 198.71 509.25Q197.98 507.64 196.69 506.77Q195.40 505.90 193.66 505.90Q191.80 505.90 190.24 506.77Q188.68 507.64 187.75 509.25Q186.82 510.85 186.82 513.10ZM189.25 513.10Q189.25 511.51 189.89 510.40Q190.54 509.29 191.62 508.72Q192.70 508.15 193.96 508.15Q195.01 508.15 196.03 508.72Q197.05 509.29 197.71 510.40Q198.37 511.51 198.37 513.10Q198.37 514.69 197.71 515.80Q197.05 516.91 196.03 517.48Q195.01 518.05 193.96 518.05Q192.70 518.05 191.62 517.48Q190.54 516.91 189.89 515.80Q189.25 514.69 189.25 513.10Z M206.20 515.74Q206.20 514.99 206.56 514.45Q206.92 513.91 207.65 513.61Q208.39 513.31 209.56 513.31Q210.82 513.31 211.93 513.62Q213.04 513.94 214.09 514.66V513.25Q213.88 512.98 213.28 512.55Q212.68 512.11 211.67 511.76Q210.67 511.42 209.17 511.42Q206.62 511.42 205.19 512.63Q203.77 513.85 203.77 515.86Q203.77 517.27 204.43 518.26Q205.09 519.25 206.18 519.77Q207.28 520.30 208.54 520.30Q209.68 520.30 210.83 519.88Q211.99 519.46 212.78 518.59Q213.58 517.72 213.58 516.40L213.10 514.60Q213.10 515.68 212.57 516.50Q212.05 517.33 211.16 517.78Q210.28 518.23 209.17 518.23Q208.30 518.23 207.62 517.94Q206.95 517.66 206.57 517.09Q206.20 516.52 206.20 515.74ZM205.84 509.38Q206.17 509.14 206.74 508.81Q207.31 508.48 208.13 508.24Q208.96 508.00 209.98 508.00Q210.61 508.00 211.18 508.12Q211.75 508.24 212.18 508.51Q212.62 508.78 212.86 509.25Q213.10 509.71 213.10 510.43V520.00H215.50V510.10Q215.50 508.75 214.82 507.82Q214.15 506.89 212.93 506.39Q211.72 505.90 210.10 505.90Q208.18 505.90 206.81 506.47Q205.45 507.04 204.67 507.61Z M230.50 506.20H227.80L223.54 516.88L224.53 517.00L220.15 506.20H217.30L222.58 518.05L218.80 526.60H221.50Z M233.32 515.77 231.43 516.94Q231.82 517.75 232.58 518.53Q233.35 519.31 234.46 519.80Q235.57 520.30 236.95 520.30Q239.08 520.30 240.38 519.10Q241.69 517.90 241.69 516.10Q241.69 514.87 241.10 514.09Q240.52 513.31 239.53 512.75Q238.54 512.20 237.34 511.72Q236.62 511.42 235.96 511.09Q235.30 510.76 234.88 510.34Q234.46 509.92 234.46 509.38Q234.46 508.69 235.00 508.36Q235.54 508.03 236.29 508.03Q237.37 508.03 238.22 508.54Q239.08 509.05 239.65 509.83L241.57 508.60Q241.15 507.82 240.40 507.22Q239.65 506.62 238.67 506.26Q237.70 505.90 236.59 505.90Q235.48 505.90 234.44 506.29Q233.41 506.68 232.76 507.49Q232.12 508.30 232.12 509.53Q232.12 510.73 232.73 511.53Q233.35 512.32 234.26 512.82Q235.18 513.31 236.08 513.67Q236.89 513.97 237.61 514.32Q238.33 514.66 238.79 515.15Q239.26 515.65 239.26 516.37Q239.26 517.18 238.67 517.64Q238.09 518.11 237.07 518.11Q236.23 518.11 235.52 517.80Q234.82 517.48 234.28 516.94Q233.74 516.40 233.32 515.77Z" fill="#4F6472"/>
<path d="M458.34 389.80V408.00H461.40V389.80ZM460.16 392.50H463.82Q465.41 392.50 466.37 393.25Q467.33 393.99 467.33 395.44Q467.33 396.90 466.37 397.65Q465.41 398.41 463.82 398.41H460.16V401.11H463.82Q465.82 401.11 467.28 400.42Q468.74 399.73 469.55 398.46Q470.37 397.18 470.37 395.44Q470.37 393.70 469.55 392.44Q468.74 391.18 467.28 390.49Q465.82 389.80 463.82 389.80H460.16Z M479.27 399.65H492.27V396.82H479.27ZM490.26 389.80V408.00H493.33V389.80ZM478.04 389.80V408.00H481.11V389.80Z M504.25 403.32H513.87L513.30 400.72H504.85ZM509.01 394.95 511.92 401.71 511.97 402.46 514.44 408.00H517.93L509.01 388.79L500.12 408.00H503.58L506.10 402.31L506.15 401.63Z M525.88 402.12 523.60 403.74Q524.19 404.98 525.22 406.05Q526.25 407.12 527.61 407.75Q528.98 408.39 530.56 408.39Q531.73 408.39 532.81 408.01Q533.89 407.64 534.75 406.95Q535.61 406.26 536.11 405.24Q536.62 404.23 536.62 402.96Q536.62 401.76 536.21 400.86Q535.79 399.97 535.13 399.32Q534.46 398.67 533.64 398.22Q532.83 397.78 531.99 397.50Q530.54 396.98 529.63 396.48Q528.72 395.99 528.29 395.43Q527.86 394.87 527.86 394.17Q527.86 393.39 528.46 392.80Q529.06 392.22 530.33 392.22Q531.24 392.22 531.93 392.57Q532.62 392.92 533.14 393.50Q533.66 394.09 534.02 394.77L536.49 393.36Q536.05 392.40 535.22 391.52Q534.39 390.63 533.19 390.05Q531.99 389.46 530.38 389.46Q528.74 389.46 527.46 390.09Q526.17 390.71 525.42 391.81Q524.66 392.92 524.66 394.38Q524.66 395.65 525.16 396.55Q525.65 397.44 526.40 398.06Q527.16 398.67 527.99 399.07Q528.82 399.47 529.50 399.71Q530.64 400.12 531.53 400.55Q532.41 400.98 532.89 401.59Q533.37 402.20 533.37 403.19Q533.37 404.28 532.59 404.96Q531.81 405.63 530.56 405.63Q529.55 405.63 528.70 405.19Q527.86 404.75 527.17 403.97Q526.48 403.19 525.88 402.12Z M546.32 408.00H555.50V405.30H546.32ZM546.32 392.50H555.50V389.80H546.32ZM546.32 399.58H554.98V396.92H546.32ZM544.42 389.80V408.00H547.44V389.80Z M574.92 408.00H588.80V405.14H580.93L586.07 400.07Q587.19 399.03 587.89 397.70Q588.60 396.38 588.60 394.95Q588.60 394.04 588.21 393.08Q587.82 392.11 587.05 391.31Q586.28 390.50 585.11 390.00Q583.94 389.49 582.36 389.49Q580.30 389.49 578.85 390.36Q577.39 391.23 576.65 392.75Q575.91 394.27 575.91 396.22H578.95Q578.95 395.03 579.35 394.12Q579.76 393.21 580.51 392.73Q581.26 392.24 582.30 392.24Q583.06 392.24 583.63 392.49Q584.20 392.74 584.60 393.15Q585.01 393.57 585.20 394.08Q585.40 394.58 585.40 395.10Q585.40 395.83 585.16 396.48Q584.93 397.13 584.46 397.78Q583.99 398.43 583.34 399.13Z" fill="#4F6472"/>
<path d="M503.23 441.06H498.91V463.84H502.69V470.00H488.60V463.84H491.68V450.45H491.46L482.23 467.14H479.20L469.27 449.80H469.05V463.84H472.40V470.00H458.52V463.84H462.30V441.06H457.98V434.90H468.35L480.82 456.66H481.04L492.76 434.90H503.23Z M532.07 457.85Q532.07 463.63 528.29 467.08Q524.51 470.54 518.68 470.54Q513.06 470.54 509.52 467.27Q505.99 464.01 505.99 458.12Q505.99 452.77 509.23 448.94Q512.47 445.11 519.06 445.11Q525.64 445.11 528.86 448.91Q532.07 452.72 532.07 457.85ZM524.89 457.63Q524.89 453.91 523.16 452.18Q521.43 450.45 518.95 450.45Q516.25 450.45 514.71 452.37Q513.17 454.29 513.17 457.74Q513.17 460.87 514.60 463.03Q516.03 465.19 518.89 465.19Q521.59 465.19 523.24 463.17Q524.89 461.14 524.89 457.63Z M561.77 457.26Q561.77 462.66 558.93 466.60Q556.10 470.54 550.59 470.54Q545.03 470.54 542.76 466.33Q542.65 467.25 542.52 468.16Q542.38 469.08 542.22 470.00H535.26Q535.63 468.11 535.90 466.22Q536.17 464.33 536.17 462.49V438.14H532.93V432.85H543.14V450.29Q544.11 448.18 546.08 446.67Q548.05 445.16 551.35 445.16Q555.94 445.16 558.85 448.35Q561.77 451.53 561.77 457.26ZM554.53 457.85Q554.53 454.34 553.02 452.50Q551.51 450.67 549.03 450.67Q546.22 450.67 544.68 452.72Q543.14 454.77 543.14 457.47V458.07Q543.14 461.04 544.62 463.06Q546.11 465.09 548.86 465.09Q551.24 465.09 552.89 463.33Q554.53 461.58 554.53 457.85Z M567.60 441.33V434.09H574.57V441.33ZM578.08 470.00H564.63V464.76H567.87V450.94H564.36V445.65H574.84V464.76H578.08Z M593.47 470.00H580.02V464.76H583.26V438.14H579.75V432.85H590.23V464.76H593.47Z M599.14 441.33V434.09H606.10V441.33ZM609.61 470.00H596.17V464.76H599.41V450.94H595.90V445.65H606.37V464.76H609.61Z M633.81 470.00H612.53L611.83 466.33L624.90 450.88H617.61L616.53 454.61L611.50 454.18L612.37 445.65H633.75L634.29 449.32L620.85 464.76H628.68L629.81 460.93L635.32 461.47Z M640.02 447.37Q643.20 446.08 645.33 445.62Q647.47 445.16 650.44 445.16Q654.38 445.16 657.24 447.21Q660.10 449.26 660.10 453.42V464.01Q660.10 465.90 661.78 465.90Q662.26 465.90 662.80 465.73L662.86 469.41Q660.75 470.54 658.48 470.54Q653.68 470.54 653.14 465.73V465.68Q652.11 467.52 650.19 469.03Q648.28 470.54 645.31 470.54Q642.66 470.54 640.23 468.97Q637.80 467.41 637.80 463.57Q637.80 459.09 641.39 457.63Q644.98 456.18 649.14 456.18Q651.46 456.18 653.14 456.39V455.58Q653.14 453.69 652.62 451.91Q652.11 450.13 649.14 450.13Q648.06 450.13 647.17 450.26Q646.28 450.40 645.42 450.83L644.50 454.29L638.94 453.69ZM653.14 460.06V459.74Q652.27 459.63 651.38 459.52Q650.49 459.42 649.63 459.42Q647.79 459.42 646.39 460.09Q644.98 460.77 644.98 462.76Q644.98 463.95 645.63 464.76Q646.28 465.57 647.85 465.57Q649.68 465.57 651.27 464.25Q652.87 462.93 653.14 460.06Z M685.59 462.44Q685.05 466.65 682.68 468.60Q680.30 470.54 676.52 470.54Q672.47 470.54 669.96 468.51Q667.45 466.49 667.45 462.71V450.61H663.99V445.65H667.45V438.25H674.41V445.65H683.16V450.61H674.41V461.52Q674.41 464.71 677.33 464.71Q677.98 464.71 679.08 464.14Q680.19 463.57 680.52 460.87Z M689.86 441.33V434.09H696.82V441.33ZM700.33 470.00H686.89V464.76H690.13V450.94H686.62V445.65H697.09V464.76H700.33Z M728.47 457.85Q728.47 463.63 724.69 467.08Q720.91 470.54 715.08 470.54Q709.46 470.54 705.92 467.27Q702.39 464.01 702.39 458.12Q702.39 452.77 705.63 448.94Q708.87 445.11 715.45 445.11Q722.04 445.11 725.25 448.91Q728.47 452.72 728.47 457.85ZM721.29 457.63Q721.29 453.91 719.56 452.18Q717.83 450.45 715.35 450.45Q712.65 450.45 711.11 452.37Q709.57 454.29 709.57 457.74Q709.57 460.87 711.00 463.03Q712.43 465.19 715.29 465.19Q717.99 465.19 719.64 463.17Q721.29 461.14 721.29 457.63Z M760.92 470.00H747.48V464.76H750.72V456.28Q750.72 453.15 749.66 451.80Q748.61 450.45 746.56 450.45Q744.07 450.45 742.72 451.99Q741.37 453.53 741.32 456.01V464.76H744.56V470.00H731.11V464.76H734.35V450.94H730.84V445.65H741.32V449.37Q743.75 445.16 749.15 445.16Q752.61 445.16 755.14 447.21Q757.68 449.26 757.68 453.58V464.76H760.92Z" fill="#08355A"/>
<path d="M456.91 520.00H471.73V517.60H462.16L468.85 510.79Q470.08 509.53 470.86 507.94Q471.64 506.35 471.64 504.73Q471.64 503.77 471.25 502.72Q470.86 501.67 470.05 500.75Q469.24 499.84 467.98 499.25Q466.72 498.67 464.98 498.67Q462.82 498.67 461.27 499.62Q459.73 500.56 458.92 502.25Q458.11 503.95 458.11 506.20H460.66Q460.66 504.61 461.17 503.46Q461.68 502.30 462.65 501.69Q463.63 501.07 464.98 501.07Q465.94 501.07 466.69 501.40Q467.44 501.73 467.96 502.27Q468.49 502.81 468.76 503.47Q469.03 504.13 469.03 504.82Q469.03 505.66 468.77 506.43Q468.52 507.19 468.02 507.93Q467.53 508.66 466.84 509.41Z M475.48 514.00H493.48V511.75H475.48Z M503.17 509.65Q505.21 509.65 506.74 508.93Q508.27 508.21 509.14 506.98Q510.01 505.75 510.01 504.28Q510.01 502.78 509.30 501.52Q508.60 500.26 507.29 499.48Q505.99 498.70 504.19 498.70Q502.48 498.70 501.14 499.40Q499.81 500.11 499.04 501.34Q498.28 502.57 498.28 504.22H500.71Q500.71 502.84 501.73 501.92Q502.75 501.01 504.22 501.01Q505.27 501.01 505.97 501.43Q506.68 501.85 507.04 502.62Q507.40 503.38 507.40 504.37Q507.40 505.12 507.11 505.78Q506.83 506.44 506.29 506.94Q505.75 507.43 504.97 507.72Q504.19 508.00 503.17 508.00ZM504.07 520.30Q505.96 520.30 507.43 519.58Q508.90 518.86 509.75 517.54Q510.61 516.22 510.61 514.45Q510.61 512.89 510.02 511.78Q509.44 510.67 508.40 509.97Q507.37 509.26 506.03 508.93Q504.70 508.60 503.17 508.60V510.25Q504.19 510.25 505.06 510.49Q505.93 510.73 506.59 511.23Q507.25 511.72 507.62 512.46Q508.00 513.19 508.00 514.15Q508.00 515.29 507.52 516.13Q507.04 516.97 506.15 517.43Q505.27 517.90 504.07 517.90Q502.87 517.90 501.94 517.45Q501.01 517.00 500.48 516.22Q499.96 515.44 499.96 514.45H497.38Q497.38 515.68 497.86 516.74Q498.34 517.81 499.21 518.61Q500.08 519.40 501.31 519.85Q502.54 520.30 504.07 520.30Z M533.56 496.60V520.00H535.96V496.60ZM522.01 513.10Q522.01 515.32 522.94 516.94Q523.87 518.56 525.43 519.43Q526.99 520.30 528.85 520.30Q530.59 520.30 531.88 519.43Q533.17 518.56 533.90 516.94Q534.64 515.32 534.64 513.10Q534.64 510.85 533.90 509.25Q533.17 507.64 531.88 506.77Q530.59 505.90 528.85 505.90Q526.99 505.90 525.43 506.77Q523.87 507.64 522.94 509.25Q522.01 510.85 522.01 513.10ZM524.44 513.10Q524.44 511.51 525.08 510.40Q525.73 509.29 526.81 508.72Q527.89 508.15 529.15 508.15Q530.20 508.15 531.22 508.72Q532.24 509.29 532.90 510.40Q533.56 511.51 533.56 513.10Q533.56 514.69 532.90 515.80Q532.24 516.91 531.22 517.48Q530.20 518.05 529.15 518.05Q527.89 518.05 526.81 517.48Q525.73 516.91 525.08 515.80Q524.44 514.69 524.44 513.10Z M541.39 515.74Q541.39 514.99 541.75 514.45Q542.11 513.91 542.84 513.61Q543.58 513.31 544.75 513.31Q546.01 513.31 547.12 513.62Q548.23 513.94 549.28 514.66V513.25Q549.07 512.98 548.47 512.55Q547.87 512.11 546.86 511.76Q545.86 511.42 544.36 511.42Q541.81 511.42 540.38 512.63Q538.96 513.85 538.96 515.86Q538.96 517.27 539.62 518.26Q540.28 519.25 541.37 519.77Q542.47 520.30 543.73 520.30Q544.87 520.30 546.02 519.88Q547.18 519.46 547.97 518.59Q548.77 517.72 548.77 516.40L548.29 514.60Q548.29 515.68 547.76 516.50Q547.24 517.33 546.35 517.78Q545.47 518.23 544.36 518.23Q543.49 518.23 542.81 517.94Q542.14 517.66 541.76 517.09Q541.39 516.52 541.39 515.74ZM541.03 509.38Q541.36 509.14 541.93 508.81Q542.50 508.48 543.32 508.24Q544.15 508.00 545.17 508.00Q545.80 508.00 546.37 508.12Q546.94 508.24 547.37 508.51Q547.81 508.78 548.05 509.25Q548.29 509.71 548.29 510.43V520.00H550.69V510.10Q550.69 508.75 550.01 507.82Q549.34 506.89 548.12 506.39Q546.91 505.90 545.29 505.90Q543.37 505.90 542.00 506.47Q540.64 507.04 539.86 507.61Z M565.69 506.20H562.99L558.73 516.88L559.72 517.00L555.34 506.20H552.49L557.77 518.05L553.99 526.60H556.69Z M568.51 515.77 566.62 516.94Q567.01 517.75 567.77 518.53Q568.54 519.31 569.65 519.80Q570.76 520.30 572.14 520.30Q574.27 520.30 575.57 519.10Q576.88 517.90 576.88 516.10Q576.88 514.87 576.29 514.09Q575.71 513.31 574.72 512.75Q573.73 512.20 572.53 511.72Q571.81 511.42 571.15 511.09Q570.49 510.76 570.07 510.34Q569.65 509.92 569.65 509.38Q569.65 508.69 570.19 508.36Q570.73 508.03 571.48 508.03Q572.56 508.03 573.41 508.54Q574.27 509.05 574.84 509.83L576.76 508.60Q576.34 507.82 575.59 507.22Q574.84 506.62 573.86 506.26Q572.89 505.90 571.78 505.90Q570.67 505.90 569.63 506.29Q568.60 506.68 567.95 507.49Q567.31 508.30 567.31 509.53Q567.31 510.73 567.92 511.53Q568.54 512.32 569.45 512.82Q570.37 513.31 571.27 513.67Q572.08 513.97 572.80 514.32Q573.52 514.66 573.98 515.15Q574.45 515.65 574.45 516.37Q574.45 517.18 573.86 517.64Q573.28 518.11 572.26 518.11Q571.42 518.11 570.71 517.80Q570.01 517.48 569.47 516.94Q568.93 516.40 568.51 515.77Z" fill="#4F6472"/>
<path d="M956.80 389.80V408.00H959.87V389.80ZM958.62 392.50H962.28Q963.87 392.50 964.83 393.25Q965.79 393.99 965.79 395.44Q965.79 396.90 964.83 397.65Q963.87 398.41 962.28 398.41H958.62V401.11H962.28Q964.29 401.11 965.74 400.42Q967.20 399.73 968.02 398.46Q968.84 397.18 968.84 395.44Q968.84 393.70 968.02 392.44Q967.20 391.18 965.74 390.49Q964.29 389.80 962.28 389.80H958.62Z M977.73 399.65H990.73V396.82H977.73ZM988.73 389.80V408.00H991.79V389.80ZM976.51 389.80V408.00H979.57V389.80Z M1002.71 403.32H1012.33L1011.76 400.72H1003.31ZM1007.47 394.95 1010.38 401.71 1010.44 402.46 1012.91 408.00H1016.39L1007.47 388.79L998.58 408.00H1002.04L1004.56 402.31L1004.61 401.63Z M1024.35 402.12 1022.06 403.74Q1022.66 404.98 1023.68 406.05Q1024.71 407.12 1026.07 407.75Q1027.44 408.39 1029.03 408.39Q1030.20 408.39 1031.27 408.01Q1032.35 407.64 1033.21 406.95Q1034.07 406.26 1034.58 405.24Q1035.08 404.23 1035.08 402.96Q1035.08 401.76 1034.67 400.86Q1034.25 399.97 1033.59 399.32Q1032.93 398.67 1032.11 398.22Q1031.29 397.78 1030.46 397.50Q1029.00 396.98 1028.09 396.48Q1027.18 395.99 1026.75 395.43Q1026.32 394.87 1026.32 394.17Q1026.32 393.39 1026.92 392.80Q1027.52 392.22 1028.79 392.22Q1029.70 392.22 1030.39 392.57Q1031.08 392.92 1031.60 393.50Q1032.12 394.09 1032.48 394.77L1034.95 393.36Q1034.51 392.40 1033.68 391.52Q1032.85 390.63 1031.65 390.05Q1030.46 389.46 1028.84 389.46Q1027.21 389.46 1025.92 390.09Q1024.63 390.71 1023.88 391.81Q1023.12 392.92 1023.12 394.38Q1023.12 395.65 1023.62 396.55Q1024.11 397.44 1024.87 398.06Q1025.62 398.67 1026.45 399.07Q1027.28 399.47 1027.96 399.71Q1029.10 400.12 1029.99 400.55Q1030.87 400.98 1031.35 401.59Q1031.83 402.20 1031.83 403.19Q1031.83 404.28 1031.05 404.96Q1030.27 405.63 1029.03 405.63Q1028.01 405.63 1027.17 405.19Q1026.32 404.75 1025.63 403.97Q1024.94 403.19 1024.35 402.12Z M1044.78 408.00H1053.96V405.30H1044.78ZM1044.78 392.50H1053.96V389.80H1044.78ZM1044.78 399.58H1053.44V396.92H1044.78ZM1042.88 389.80V408.00H1045.90V389.80Z M1079.67 399.08Q1081.60 399.08 1083.09 398.51Q1084.59 397.94 1085.45 396.87Q1086.30 395.81 1086.30 394.43Q1086.30 393.08 1085.64 391.97Q1084.98 390.87 1083.73 390.19Q1082.48 389.51 1080.71 389.51Q1079.05 389.51 1077.78 390.18Q1076.50 390.84 1075.79 391.98Q1075.07 393.13 1075.07 394.64H1077.96Q1077.96 393.54 1078.76 392.83Q1079.57 392.11 1080.74 392.11Q1081.57 392.11 1082.12 392.43Q1082.66 392.74 1082.94 393.30Q1083.21 393.86 1083.21 394.58Q1083.21 395.16 1082.96 395.68Q1082.72 396.20 1082.26 396.60Q1081.81 397.00 1081.16 397.22Q1080.51 397.44 1079.67 397.44ZM1080.58 408.31Q1082.46 408.31 1083.86 407.66Q1085.26 407.01 1086.04 405.84Q1086.82 404.67 1086.82 403.11Q1086.82 401.76 1086.28 400.78Q1085.73 399.81 1084.76 399.19Q1083.78 398.56 1082.48 398.28Q1081.18 397.99 1079.67 397.99V399.73Q1080.61 399.73 1081.35 399.94Q1082.09 400.15 1082.62 400.54Q1083.16 400.93 1083.44 401.50Q1083.73 402.07 1083.73 402.80Q1083.73 403.71 1083.35 404.35Q1082.98 404.98 1082.27 405.32Q1081.57 405.66 1080.64 405.66Q1079.73 405.66 1078.98 405.31Q1078.24 404.96 1077.81 404.31Q1077.39 403.66 1077.39 402.80H1074.29Q1074.29 403.92 1074.73 404.92Q1075.18 405.92 1075.99 406.69Q1076.81 407.45 1077.97 407.88Q1079.13 408.31 1080.58 408.31Z" fill="#4F6472"/>
<path d="M991.11 452.29Q991.11 460.28 986.41 465.14Q981.72 470.00 973.40 470.00H956.88V463.84H960.66V441.06H956.88V434.90H972.97Q981.99 434.90 986.55 439.71Q991.11 444.51 991.11 452.29ZM983.34 452.40Q983.34 441.06 972.81 441.06H967.89V463.84H972.81Q977.88 463.84 980.61 461.14Q983.34 458.44 983.34 452.40Z M1017.46 462.33Q1017.19 465.57 1014.28 468.06Q1011.36 470.54 1006.12 470.54Q1000.67 470.54 997.13 467.46Q993.60 464.38 993.60 458.28Q993.60 452.67 996.81 448.91Q1000.02 445.16 1005.80 445.16Q1010.88 445.16 1014.03 448.08Q1017.19 450.99 1017.25 455.74Q1017.25 457.53 1016.87 459.25H1000.89Q1001.48 465.03 1006.61 465.03Q1009.42 465.03 1010.42 463.68Q1011.42 462.33 1011.63 461.25ZM1010.07 455.20Q1010.28 453.37 1009.28 451.75Q1008.28 450.13 1005.80 450.13Q1003.64 450.13 1002.45 451.53Q1001.26 452.94 1000.94 455.20Z M1048.19 457.26Q1048.19 462.66 1045.35 466.60Q1042.52 470.54 1037.01 470.54Q1031.88 470.54 1029.56 466.92V476.10H1033.88V481.50H1019.35V476.10H1022.59V450.88H1019.08V445.65H1029.56V450.29Q1030.53 448.18 1032.48 446.67Q1034.42 445.16 1037.77 445.16Q1042.41 445.16 1045.30 448.35Q1048.19 451.53 1048.19 457.26ZM1040.95 457.96Q1040.95 454.39 1039.36 452.53Q1037.77 450.67 1035.28 450.67Q1032.58 450.67 1031.15 452.67Q1029.72 454.66 1029.61 457.74L1029.56 458.61Q1029.56 461.58 1031.13 463.30Q1032.69 465.03 1035.28 465.03Q1037.77 465.03 1039.36 463.30Q1040.95 461.58 1040.95 457.96Z M1063.80 470.00H1050.35V464.76H1053.59V438.14H1050.08V432.85H1060.56V464.76H1063.80Z M1091.93 457.85Q1091.93 463.63 1088.15 467.08Q1084.37 470.54 1078.54 470.54Q1072.92 470.54 1069.38 467.27Q1065.85 464.01 1065.85 458.12Q1065.85 452.77 1069.09 448.94Q1072.33 445.11 1078.92 445.11Q1085.50 445.11 1088.72 448.91Q1091.93 452.72 1091.93 457.85ZM1084.75 457.63Q1084.75 453.91 1083.02 452.18Q1081.29 450.45 1078.81 450.45Q1076.11 450.45 1074.57 452.37Q1073.03 454.29 1073.03 457.74Q1073.03 460.87 1074.46 463.03Q1075.89 465.19 1078.75 465.19Q1081.45 465.19 1083.10 463.17Q1084.75 461.14 1084.75 457.63Z M1121.25 450.88H1118.88L1111.05 470.00L1108.72 476.10H1111.91V481.50H1098.46V476.10H1102.35L1104.30 470.38L1095.76 450.88H1093.28V445.65H1105.70V450.88H1103.27L1108.24 462.12H1108.56L1112.23 450.88H1110.13V445.65H1121.25Z M1168.29 470.00H1158.08V456.28Q1158.08 453.15 1157.03 451.80Q1155.97 450.45 1153.92 450.45Q1151.44 450.45 1150.33 452.07Q1149.22 453.69 1149.22 456.23V464.76H1152.46V470.00H1142.26V456.28Q1142.26 453.15 1141.20 451.80Q1140.15 450.45 1138.10 450.45Q1135.56 450.45 1134.48 452.07Q1133.40 453.69 1133.40 456.23V464.76H1138.05V470.00H1123.20V464.76H1126.44V450.94H1123.25V445.65H1133.40V449.32Q1135.72 445.16 1140.80 445.16Q1143.45 445.16 1145.66 446.46Q1147.87 447.75 1148.74 450.40Q1150.90 445.16 1156.68 445.16Q1159.97 445.16 1162.51 447.21Q1165.05 449.26 1165.05 453.58V464.76H1168.29Z M1193.94 462.33Q1193.67 465.57 1190.75 468.06Q1187.83 470.54 1182.60 470.54Q1177.14 470.54 1173.60 467.46Q1170.07 464.38 1170.07 458.28Q1170.07 452.67 1173.28 448.91Q1176.49 445.16 1182.27 445.16Q1187.35 445.16 1190.51 448.08Q1193.67 450.99 1193.72 455.74Q1193.72 457.53 1193.34 459.25H1177.36Q1177.95 465.03 1183.08 465.03Q1185.89 465.03 1186.89 463.68Q1187.89 462.33 1188.10 461.25ZM1186.54 455.20Q1186.75 453.37 1185.75 451.75Q1184.76 450.13 1182.27 450.13Q1180.11 450.13 1178.92 451.53Q1177.74 452.94 1177.41 455.20Z M1226.39 470.00H1212.94V464.76H1216.18V456.28Q1216.18 453.15 1215.13 451.80Q1214.08 450.45 1212.03 450.45Q1209.54 450.45 1208.19 451.99Q1206.84 453.53 1206.79 456.01V464.76H1210.03V470.00H1196.58V464.76H1199.82V450.94H1196.31V445.65H1206.79V449.37Q1209.22 445.16 1214.62 445.16Q1218.07 445.16 1220.61 447.21Q1223.15 449.26 1223.15 453.58V464.76H1226.39Z M1248.96 462.44Q1248.42 466.65 1246.05 468.60Q1243.67 470.54 1239.89 470.54Q1235.84 470.54 1233.33 468.51Q1230.82 466.49 1230.82 462.71V450.61H1227.36V445.65H1230.82V438.25H1237.78V445.65H1246.53V450.61H1237.78V461.52Q1237.78 464.71 1240.70 464.71Q1241.35 464.71 1242.45 464.14Q1243.56 463.57 1243.89 460.87Z" fill="#AE510C"/>
<path d="M955.07 501.40H960.47V520.00H963.02V501.40H968.42V499.00H955.07Z M976.31 520.30Q978.53 520.30 980.16 519.41Q981.80 518.53 982.88 516.79L980.93 515.56Q980.18 516.82 979.10 517.43Q978.02 518.05 976.61 518.05Q975.20 518.05 974.21 517.45Q973.22 516.85 972.71 515.71Q972.20 514.57 972.20 512.95Q972.23 511.36 972.75 510.26Q973.28 509.17 974.25 508.59Q975.23 508.00 976.61 508.00Q977.78 508.00 978.65 508.51Q979.52 509.02 980.01 509.92Q980.51 510.82 980.51 512.05Q980.51 512.26 980.42 512.58Q980.33 512.89 980.24 513.04L981.20 511.66H971.30V513.70H983.09Q983.09 513.64 983.10 513.41Q983.12 513.19 983.12 512.98Q983.12 510.79 982.34 509.20Q981.56 507.61 980.10 506.75Q978.65 505.90 976.61 505.90Q974.57 505.90 973.02 506.80Q971.48 507.70 970.62 509.32Q969.77 510.94 969.77 513.10Q969.77 515.23 970.59 516.85Q971.42 518.47 972.90 519.38Q974.39 520.30 976.31 520.30Z M987.50 515.74Q987.50 514.99 987.86 514.45Q988.22 513.91 988.95 513.61Q989.69 513.31 990.86 513.31Q992.12 513.31 993.23 513.62Q994.34 513.94 995.39 514.66V513.25Q995.18 512.98 994.58 512.55Q993.98 512.11 992.97 511.76Q991.97 511.42 990.47 511.42Q987.92 511.42 986.49 512.63Q985.07 513.85 985.07 515.86Q985.07 517.27 985.73 518.26Q986.39 519.25 987.48 519.77Q988.58 520.30 989.84 520.30Q990.98 520.30 992.13 519.88Q993.29 519.46 994.08 518.59Q994.88 517.72 994.88 516.40L994.40 514.60Q994.40 515.68 993.87 516.50Q993.35 517.33 992.46 517.78Q991.58 518.23 990.47 518.23Q989.60 518.23 988.92 517.94Q988.25 517.66 987.87 517.09Q987.50 516.52 987.50 515.74ZM987.14 509.38Q987.47 509.14 988.04 508.81Q988.61 508.48 989.43 508.24Q990.26 508.00 991.28 508.00Q991.91 508.00 992.48 508.12Q993.05 508.24 993.48 508.51Q993.92 508.78 994.16 509.25Q994.40 509.71 994.40 510.43V520.00H996.80V510.10Q996.80 508.75 996.12 507.82Q995.45 506.89 994.23 506.39Q993.02 505.90 991.40 505.90Q989.48 505.90 988.11 506.47Q986.75 507.04 985.97 507.61Z M1019.75 511.30Q1019.75 509.59 1019.22 508.38Q1018.70 507.16 1017.71 506.53Q1016.72 505.90 1015.31 505.90Q1013.93 505.90 1012.85 506.54Q1011.77 507.19 1011.05 508.48Q1010.57 507.25 1009.53 506.57Q1008.50 505.90 1007.06 505.90Q1005.77 505.90 1004.82 506.47Q1003.88 507.04 1003.25 508.21V506.20H1000.85V520.00H1003.25V511.60Q1003.25 510.52 1003.64 509.74Q1004.03 508.96 1004.75 508.55Q1005.47 508.15 1006.46 508.15Q1007.81 508.15 1008.45 508.99Q1009.10 509.83 1009.10 511.60V520.00H1011.50V511.60Q1011.50 510.52 1011.89 509.74Q1012.28 508.96 1013.00 508.55Q1013.72 508.15 1014.71 508.15Q1016.06 508.15 1016.70 508.99Q1017.35 509.83 1017.35 511.60V520.00H1019.75Z M1032.05 513.10Q1032.05 515.17 1032.99 516.81Q1033.94 518.44 1035.56 519.37Q1037.18 520.30 1039.19 520.30Q1041.23 520.30 1042.83 519.37Q1044.44 518.44 1045.38 516.81Q1046.33 515.17 1046.33 513.10Q1046.33 511.00 1045.38 509.38Q1044.44 507.76 1042.83 506.83Q1041.23 505.90 1039.19 505.90Q1037.18 505.90 1035.56 506.83Q1033.94 507.76 1032.99 509.38Q1032.05 511.00 1032.05 513.10ZM1034.48 513.10Q1034.48 511.66 1035.09 510.54Q1035.71 509.41 1036.77 508.78Q1037.84 508.15 1039.19 508.15Q1040.54 508.15 1041.60 508.78Q1042.67 509.41 1043.28 510.54Q1043.90 511.66 1043.90 513.10Q1043.90 514.54 1043.28 515.65Q1042.67 516.76 1041.60 517.40Q1040.54 518.05 1039.19 518.05Q1037.84 518.05 1036.77 517.40Q1035.71 516.76 1035.09 515.65Q1034.48 514.54 1034.48 513.10Z M1058.48 511.60V520.00H1060.88V511.30Q1060.88 508.81 1059.60 507.36Q1058.33 505.90 1056.14 505.90Q1054.79 505.90 1053.75 506.50Q1052.72 507.10 1052.03 508.36V506.20H1049.63V520.00H1052.03V511.60Q1052.03 510.58 1052.46 509.80Q1052.90 509.02 1053.69 508.58Q1054.49 508.15 1055.54 508.15Q1056.98 508.15 1057.73 509.02Q1058.48 509.89 1058.48 511.60Z M1074.95 515.77 1073.06 516.94Q1073.45 517.75 1074.21 518.53Q1074.98 519.31 1076.09 519.80Q1077.20 520.30 1078.58 520.30Q1080.71 520.30 1082.01 519.10Q1083.32 517.90 1083.32 516.10Q1083.32 514.87 1082.73 514.09Q1082.15 513.31 1081.16 512.75Q1080.17 512.20 1078.97 511.72Q1078.25 511.42 1077.59 511.09Q1076.93 510.76 1076.51 510.34Q1076.09 509.92 1076.09 509.38Q1076.09 508.69 1076.63 508.36Q1077.17 508.03 1077.92 508.03Q1079.00 508.03 1079.85 508.54Q1080.71 509.05 1081.28 509.83L1083.20 508.60Q1082.78 507.82 1082.03 507.22Q1081.28 506.62 1080.30 506.26Q1079.33 505.90 1078.22 505.90Q1077.11 505.90 1076.07 506.29Q1075.04 506.68 1074.39 507.49Q1073.75 508.30 1073.75 509.53Q1073.75 510.73 1074.36 511.53Q1074.98 512.32 1075.89 512.82Q1076.81 513.31 1077.71 513.67Q1078.52 513.97 1079.24 514.32Q1079.96 514.66 1080.42 515.15Q1080.89 515.65 1080.89 516.37Q1080.89 517.18 1080.30 517.64Q1079.72 518.11 1078.70 518.11Q1077.86 518.11 1077.15 517.80Q1076.45 517.48 1075.91 516.94Q1075.37 516.40 1074.95 515.77Z M1086.47 500.50Q1086.47 501.16 1086.96 501.65Q1087.46 502.15 1088.12 502.15Q1088.81 502.15 1089.29 501.65Q1089.77 501.16 1089.77 500.50Q1089.77 499.81 1089.29 499.33Q1088.81 498.85 1088.12 498.85Q1087.46 498.85 1086.96 499.33Q1086.47 499.81 1086.47 500.50ZM1086.92 506.20V520.00H1089.32V506.20Z M1092.17 506.20V508.45H1099.07V506.20ZM1094.42 501.40V520.00H1096.82V501.40Z M1106.81 520.30Q1109.03 520.30 1110.66 519.41Q1112.30 518.53 1113.38 516.79L1111.43 515.56Q1110.68 516.82 1109.60 517.43Q1108.52 518.05 1107.11 518.05Q1105.70 518.05 1104.71 517.45Q1103.72 516.85 1103.21 515.71Q1102.70 514.57 1102.70 512.95Q1102.73 511.36 1103.25 510.26Q1103.78 509.17 1104.75 508.59Q1105.73 508.00 1107.11 508.00Q1108.28 508.00 1109.15 508.51Q1110.02 509.02 1110.51 509.92Q1111.01 510.82 1111.01 512.05Q1111.01 512.26 1110.92 512.58Q1110.83 512.89 1110.74 513.04L1111.70 511.66H1101.80V513.70H1113.59Q1113.59 513.64 1113.60 513.41Q1113.62 513.19 1113.62 512.98Q1113.62 510.79 1112.84 509.20Q1112.06 507.61 1110.60 506.75Q1109.15 505.90 1107.11 505.90Q1105.07 505.90 1103.52 506.80Q1101.98 507.70 1101.12 509.32Q1100.27 510.94 1100.27 513.10Q1100.27 515.23 1101.09 516.85Q1101.92 518.47 1103.40 519.38Q1104.89 520.30 1106.81 520.30Z M1126.52 512.80Q1126.52 513.46 1127.01 513.96Q1127.51 514.45 1128.17 514.45Q1128.86 514.45 1129.34 513.96Q1129.82 513.46 1129.82 512.80Q1129.82 512.11 1129.34 511.63Q1128.86 511.15 1128.17 511.15Q1127.51 511.15 1127.01 511.63Q1126.52 512.11 1126.52 512.80Z M1142.87 506.20V508.45H1149.77V506.20ZM1149.53 499.48 1150.85 497.50Q1150.64 497.20 1150.26 496.93Q1149.89 496.66 1149.38 496.48Q1148.87 496.30 1148.21 496.30Q1146.95 496.30 1146.06 496.83Q1145.18 497.35 1144.70 498.40Q1144.22 499.45 1144.22 501.10V520.00H1146.62V501.40Q1146.62 500.41 1146.80 499.81Q1146.98 499.21 1147.29 498.95Q1147.61 498.70 1148.06 498.70Q1148.42 498.70 1148.82 498.84Q1149.23 498.97 1149.53 499.48Z M1151.30 513.10Q1151.30 515.17 1152.24 516.81Q1153.19 518.44 1154.81 519.37Q1156.43 520.30 1158.44 520.30Q1160.48 520.30 1162.08 519.37Q1163.69 518.44 1164.63 516.81Q1165.58 515.17 1165.58 513.10Q1165.58 511.00 1164.63 509.38Q1163.69 507.76 1162.08 506.83Q1160.48 505.90 1158.44 505.90Q1156.43 505.90 1154.81 506.83Q1153.19 507.76 1152.24 509.38Q1151.30 511.00 1151.30 513.10ZM1153.73 513.10Q1153.73 511.66 1154.34 510.54Q1154.96 509.41 1156.02 508.78Q1157.09 508.15 1158.44 508.15Q1159.79 508.15 1160.85 508.78Q1161.92 509.41 1162.53 510.54Q1163.15 511.66 1163.15 513.10Q1163.15 514.54 1162.53 515.65Q1161.92 516.76 1160.85 517.40Q1159.79 518.05 1158.44 518.05Q1157.09 518.05 1156.02 517.40Q1154.96 516.76 1154.34 515.65Q1153.73 514.54 1153.73 513.10Z M1171.28 506.20H1168.88V520.00H1171.28ZM1175.45 508.84 1176.77 506.86Q1176.23 506.29 1175.58 506.10Q1174.94 505.90 1174.19 505.90Q1173.23 505.90 1172.30 506.65Q1171.37 507.40 1170.78 508.67Q1170.20 509.95 1170.20 511.60H1171.28Q1171.28 510.61 1171.47 509.83Q1171.67 509.05 1172.18 508.60Q1172.69 508.15 1173.59 508.15Q1174.19 508.15 1174.58 508.31Q1174.97 508.48 1175.45 508.84Z M1189.25 515.74Q1189.25 514.99 1189.61 514.45Q1189.97 513.91 1190.70 513.61Q1191.44 513.31 1192.61 513.31Q1193.87 513.31 1194.98 513.62Q1196.09 513.94 1197.14 514.66V513.25Q1196.93 512.98 1196.33 512.55Q1195.73 512.11 1194.72 511.76Q1193.72 511.42 1192.22 511.42Q1189.67 511.42 1188.24 512.63Q1186.82 513.85 1186.82 515.86Q1186.82 517.27 1187.48 518.26Q1188.14 519.25 1189.23 519.77Q1190.33 520.30 1191.59 520.30Q1192.73 520.30 1193.88 519.88Q1195.04 519.46 1195.83 518.59Q1196.63 517.72 1196.63 516.40L1196.15 514.60Q1196.15 515.68 1195.62 516.50Q1195.10 517.33 1194.21 517.78Q1193.33 518.23 1192.22 518.23Q1191.35 518.23 1190.67 517.94Q1190.00 517.66 1189.62 517.09Q1189.25 516.52 1189.25 515.74ZM1188.89 509.38Q1189.22 509.14 1189.79 508.81Q1190.36 508.48 1191.18 508.24Q1192.01 508.00 1193.03 508.00Q1193.66 508.00 1194.23 508.12Q1194.80 508.24 1195.23 508.51Q1195.67 508.78 1195.91 509.25Q1196.15 509.71 1196.15 510.43V520.00H1198.55V510.10Q1198.55 508.75 1197.87 507.82Q1197.20 506.89 1195.98 506.39Q1194.77 505.90 1193.15 505.90Q1191.23 505.90 1189.86 506.47Q1188.50 507.04 1187.72 507.61Z M1203.17 515.77 1201.28 516.94Q1201.67 517.75 1202.43 518.53Q1203.20 519.31 1204.31 519.80Q1205.42 520.30 1206.80 520.30Q1208.93 520.30 1210.23 519.10Q1211.54 517.90 1211.54 516.10Q1211.54 514.87 1210.95 514.09Q1210.37 513.31 1209.38 512.75Q1208.39 512.20 1207.19 511.72Q1206.47 511.42 1205.81 511.09Q1205.15 510.76 1204.73 510.34Q1204.31 509.92 1204.31 509.38Q1204.31 508.69 1204.85 508.36Q1205.39 508.03 1206.14 508.03Q1207.22 508.03 1208.07 508.54Q1208.93 509.05 1209.50 509.83L1211.42 508.60Q1211.00 507.82 1210.25 507.22Q1209.50 506.62 1208.52 506.26Q1207.55 505.90 1206.44 505.90Q1205.33 505.90 1204.29 506.29Q1203.26 506.68 1202.61 507.49Q1201.97 508.30 1201.97 509.53Q1201.97 510.73 1202.58 511.53Q1203.20 512.32 1204.11 512.82Q1205.03 513.31 1205.93 513.67Q1206.74 513.97 1207.46 514.32Q1208.18 514.66 1208.64 515.15Q1209.11 515.65 1209.11 516.37Q1209.11 517.18 1208.52 517.64Q1207.94 518.11 1206.92 518.11Q1206.08 518.11 1205.37 517.80Q1204.67 517.48 1204.13 516.94Q1203.59 516.40 1203.17 515.77Z M1223.69 496.60V520.00H1226.09V496.60Z M1229.39 513.10Q1229.39 515.17 1230.33 516.81Q1231.28 518.44 1232.90 519.37Q1234.52 520.30 1236.53 520.30Q1238.57 520.30 1240.17 519.37Q1241.78 518.44 1242.72 516.81Q1243.67 515.17 1243.67 513.10Q1243.67 511.00 1242.72 509.38Q1241.78 507.76 1240.17 506.83Q1238.57 505.90 1236.53 505.90Q1234.52 505.90 1232.90 506.83Q1231.28 507.76 1230.33 509.38Q1229.39 511.00 1229.39 513.10ZM1231.82 513.10Q1231.82 511.66 1232.43 510.54Q1233.05 509.41 1234.11 508.78Q1235.18 508.15 1236.53 508.15Q1237.88 508.15 1238.94 508.78Q1240.01 509.41 1240.62 510.54Q1241.24 511.66 1241.24 513.10Q1241.24 514.54 1240.62 515.65Q1240.01 516.76 1238.94 517.40Q1237.88 518.05 1236.53 518.05Q1235.18 518.05 1234.11 517.40Q1233.05 516.76 1232.43 515.65Q1231.82 514.54 1231.82 513.10Z M1255.82 511.60V520.00H1258.22V511.30Q1258.22 508.81 1256.94 507.36Q1255.67 505.90 1253.48 505.90Q1252.13 505.90 1251.09 506.50Q1250.06 507.10 1249.37 508.36V506.20H1246.97V520.00H1249.37V511.60Q1249.37 510.58 1249.80 509.80Q1250.24 509.02 1251.03 508.58Q1251.83 508.15 1252.88 508.15Q1254.32 508.15 1255.07 509.02Q1255.82 509.89 1255.82 511.60Z M1261.79 520.90Q1261.79 522.67 1262.66 524.03Q1263.53 525.40 1265.07 526.15Q1266.62 526.90 1268.63 526.90Q1270.37 526.90 1271.93 526.09Q1273.49 525.28 1274.48 523.67Q1275.47 522.07 1275.47 519.70V506.20H1273.07V519.70Q1273.07 521.44 1272.39 522.54Q1271.72 523.63 1270.70 524.14Q1269.68 524.65 1268.63 524.65Q1267.28 524.65 1266.29 524.12Q1265.30 523.60 1264.76 522.75Q1264.22 521.89 1264.22 520.90ZM1261.52 513.10Q1261.52 515.32 1262.45 516.94Q1263.38 518.56 1264.94 519.43Q1266.50 520.30 1268.36 520.30Q1270.10 520.30 1271.39 519.43Q1272.68 518.56 1273.41 516.94Q1274.15 515.32 1274.15 513.10Q1274.15 510.85 1273.41 509.25Q1272.68 507.64 1271.39 506.77Q1270.10 505.90 1268.36 505.90Q1266.50 505.90 1264.94 506.77Q1263.38 507.64 1262.45 509.25Q1261.52 510.85 1261.52 513.10ZM1263.95 513.10Q1263.95 511.51 1264.59 510.40Q1265.24 509.29 1266.32 508.72Q1267.40 508.15 1268.66 508.15Q1269.44 508.15 1270.22 508.48Q1271.00 508.81 1271.64 509.44Q1272.29 510.07 1272.68 510.99Q1273.07 511.90 1273.07 513.10Q1273.07 514.69 1272.41 515.80Q1271.75 516.91 1270.73 517.48Q1269.71 518.05 1268.66 518.05Q1267.40 518.05 1266.32 517.48Q1265.24 516.91 1264.59 515.80Q1263.95 514.69 1263.95 513.10Z M1289.90 515.74Q1289.90 514.99 1290.26 514.45Q1290.62 513.91 1291.35 513.61Q1292.09 513.31 1293.26 513.31Q1294.52 513.31 1295.63 513.62Q1296.74 513.94 1297.79 514.66V513.25Q1297.58 512.98 1296.98 512.55Q1296.38 512.11 1295.37 511.76Q1294.37 511.42 1292.87 511.42Q1290.32 511.42 1288.89 512.63Q1287.47 513.85 1287.47 515.86Q1287.47 517.27 1288.13 518.26Q1288.79 519.25 1289.88 519.77Q1290.98 520.30 1292.24 520.30Q1293.38 520.30 1294.53 519.88Q1295.69 519.46 1296.48 518.59Q1297.28 517.72 1297.28 516.40L1296.80 514.60Q1296.80 515.68 1296.27 516.50Q1295.75 517.33 1294.86 517.78Q1293.98 518.23 1292.87 518.23Q1292.00 518.23 1291.32 517.94Q1290.65 517.66 1290.27 517.09Q1289.90 516.52 1289.90 515.74ZM1289.54 509.38Q1289.87 509.14 1290.44 508.81Q1291.01 508.48 1291.83 508.24Q1292.66 508.00 1293.68 508.00Q1294.31 508.00 1294.88 508.12Q1295.45 508.24 1295.88 508.51Q1296.32 508.78 1296.56 509.25Q1296.80 509.71 1296.80 510.43V520.00H1299.20V510.10Q1299.20 508.75 1298.52 507.82Q1297.85 506.89 1296.63 506.39Q1295.42 505.90 1293.80 505.90Q1291.88 505.90 1290.51 506.47Q1289.15 507.04 1288.37 507.61Z M1303.82 515.77 1301.93 516.94Q1302.32 517.75 1303.08 518.53Q1303.85 519.31 1304.96 519.80Q1306.07 520.30 1307.45 520.30Q1309.58 520.30 1310.88 519.10Q1312.19 517.90 1312.19 516.10Q1312.19 514.87 1311.60 514.09Q1311.02 513.31 1310.03 512.75Q1309.04 512.20 1307.84 511.72Q1307.12 511.42 1306.46 511.09Q1305.80 510.76 1305.38 510.34Q1304.96 509.92 1304.96 509.38Q1304.96 508.69 1305.50 508.36Q1306.04 508.03 1306.79 508.03Q1307.87 508.03 1308.72 508.54Q1309.58 509.05 1310.15 509.83L1312.07 508.60Q1311.65 507.82 1310.90 507.22Q1310.15 506.62 1309.17 506.26Q1308.20 505.90 1307.09 505.90Q1305.98 505.90 1304.94 506.29Q1303.91 506.68 1303.26 507.49Q1302.62 508.30 1302.62 509.53Q1302.62 510.73 1303.23 511.53Q1303.85 512.32 1304.76 512.82Q1305.68 513.31 1306.58 513.67Q1307.39 513.97 1308.11 514.32Q1308.83 514.66 1309.29 515.15Q1309.76 515.65 1309.76 516.37Q1309.76 517.18 1309.17 517.64Q1308.59 518.11 1307.57 518.11Q1306.73 518.11 1306.02 517.80Q1305.32 517.48 1304.78 516.94Q1304.24 516.40 1303.82 515.77Z M1322.24 506.20V508.45H1329.14V506.20ZM1324.49 501.40V520.00H1326.89V501.40Z M1333.94 496.60H1331.54V520.00H1333.94ZM1340.39 511.60V520.00H1342.79V511.30Q1342.79 509.50 1342.20 508.30Q1341.62 507.10 1340.55 506.50Q1339.49 505.90 1338.05 505.90Q1336.61 505.90 1335.51 506.65Q1334.42 507.40 1333.79 508.67Q1333.16 509.95 1333.16 511.60H1333.94Q1333.94 510.61 1334.37 509.83Q1334.81 509.05 1335.60 508.60Q1336.40 508.15 1337.45 508.15Q1338.92 508.15 1339.65 509.02Q1340.39 509.89 1340.39 511.60Z M1352.63 520.30Q1354.85 520.30 1356.48 519.41Q1358.12 518.53 1359.20 516.79L1357.25 515.56Q1356.50 516.82 1355.42 517.43Q1354.34 518.05 1352.93 518.05Q1351.52 518.05 1350.53 517.45Q1349.54 516.85 1349.03 515.71Q1348.52 514.57 1348.52 512.95Q1348.55 511.36 1349.07 510.26Q1349.60 509.17 1350.57 508.59Q1351.55 508.00 1352.93 508.00Q1354.10 508.00 1354.97 508.51Q1355.84 509.02 1356.33 509.92Q1356.83 510.82 1356.83 512.05Q1356.83 512.26 1356.74 512.58Q1356.65 512.89 1356.56 513.04L1357.52 511.66H1347.62V513.70H1359.41Q1359.41 513.64 1359.42 513.41Q1359.44 513.19 1359.44 512.98Q1359.44 510.79 1358.66 509.20Q1357.88 507.61 1356.42 506.75Q1354.97 505.90 1352.93 505.90Q1350.89 505.90 1349.34 506.80Q1347.80 507.70 1346.94 509.32Q1346.09 510.94 1346.09 513.10Q1346.09 515.23 1346.91 516.85Q1347.74 518.47 1349.22 519.38Q1350.71 520.30 1352.63 520.30Z M1370.81 520.90Q1370.81 522.67 1371.68 524.03Q1372.55 525.40 1374.09 526.15Q1375.64 526.90 1377.65 526.90Q1379.39 526.90 1380.95 526.09Q1382.51 525.28 1383.50 523.67Q1384.49 522.07 1384.49 519.70V506.20H1382.09V519.70Q1382.09 521.44 1381.41 522.54Q1380.74 523.63 1379.72 524.14Q1378.70 524.65 1377.65 524.65Q1376.30 524.65 1375.31 524.12Q1374.32 523.60 1373.78 522.75Q1373.24 521.89 1373.24 520.90ZM1370.54 513.10Q1370.54 515.32 1371.47 516.94Q1372.40 518.56 1373.96 519.43Q1375.52 520.30 1377.38 520.30Q1379.12 520.30 1380.41 519.43Q1381.70 518.56 1382.43 516.94Q1383.17 515.32 1383.17 513.10Q1383.17 510.85 1382.43 509.25Q1381.70 507.64 1380.41 506.77Q1379.12 505.90 1377.38 505.90Q1375.52 505.90 1373.96 506.77Q1372.40 507.64 1371.47 509.25Q1370.54 510.85 1370.54 513.10ZM1372.97 513.10Q1372.97 511.51 1373.61 510.40Q1374.26 509.29 1375.34 508.72Q1376.42 508.15 1377.68 508.15Q1378.46 508.15 1379.24 508.48Q1380.02 508.81 1380.66 509.44Q1381.31 510.07 1381.70 510.99Q1382.09 511.90 1382.09 513.10Q1382.09 514.69 1381.43 515.80Q1380.77 516.91 1379.75 517.48Q1378.73 518.05 1377.68 518.05Q1376.42 518.05 1375.34 517.48Q1374.26 516.91 1373.61 515.80Q1372.97 514.69 1372.97 513.10Z M1389.92 515.74Q1389.92 514.99 1390.28 514.45Q1390.64 513.91 1391.37 513.61Q1392.11 513.31 1393.28 513.31Q1394.54 513.31 1395.65 513.62Q1396.76 513.94 1397.81 514.66V513.25Q1397.60 512.98 1397.00 512.55Q1396.40 512.11 1395.39 511.76Q1394.39 511.42 1392.89 511.42Q1390.34 511.42 1388.91 512.63Q1387.49 513.85 1387.49 515.86Q1387.49 517.27 1388.15 518.26Q1388.81 519.25 1389.90 519.77Q1391.00 520.30 1392.26 520.30Q1393.40 520.30 1394.55 519.88Q1395.71 519.46 1396.50 518.59Q1397.30 517.72 1397.30 516.40L1396.82 514.60Q1396.82 515.68 1396.29 516.50Q1395.77 517.33 1394.88 517.78Q1394.00 518.23 1392.89 518.23Q1392.02 518.23 1391.34 517.94Q1390.67 517.66 1390.29 517.09Q1389.92 516.52 1389.92 515.74ZM1389.56 509.38Q1389.89 509.14 1390.46 508.81Q1391.03 508.48 1391.85 508.24Q1392.68 508.00 1393.70 508.00Q1394.33 508.00 1394.90 508.12Q1395.47 508.24 1395.90 508.51Q1396.34 508.78 1396.58 509.25Q1396.82 509.71 1396.82 510.43V520.00H1399.22V510.10Q1399.22 508.75 1398.54 507.82Q1397.87 506.89 1396.65 506.39Q1395.44 505.90 1393.82 505.90Q1391.90 505.90 1390.53 506.47Q1389.17 507.04 1388.39 507.61Z M1405.52 526.60V506.20H1403.12V526.60ZM1417.07 513.10Q1417.07 510.85 1416.14 509.25Q1415.21 507.64 1413.66 506.77Q1412.12 505.90 1410.23 505.90Q1408.52 505.90 1407.21 506.77Q1405.91 507.64 1405.17 509.25Q1404.44 510.85 1404.44 513.10Q1404.44 515.32 1405.17 516.94Q1405.91 518.56 1407.21 519.43Q1408.52 520.30 1410.23 520.30Q1412.12 520.30 1413.66 519.43Q1415.21 518.56 1416.14 516.94Q1417.07 515.32 1417.07 513.10ZM1414.64 513.10Q1414.64 514.69 1413.99 515.80Q1413.35 516.91 1412.28 517.48Q1411.22 518.05 1409.93 518.05Q1408.88 518.05 1407.86 517.48Q1406.84 516.91 1406.18 515.80Q1405.52 514.69 1405.52 513.10Q1405.52 511.51 1406.18 510.40Q1406.84 509.29 1407.86 508.72Q1408.88 508.15 1409.93 508.15Q1411.22 508.15 1412.28 508.72Q1413.35 509.29 1413.99 510.40Q1414.64 511.51 1414.64 513.10Z M1429.37 496.60V520.00H1431.77V496.60Z M1437.35 515.74Q1437.35 514.99 1437.71 514.45Q1438.07 513.91 1438.80 513.61Q1439.54 513.31 1440.71 513.31Q1441.97 513.31 1443.08 513.62Q1444.19 513.94 1445.24 514.66V513.25Q1445.03 512.98 1444.43 512.55Q1443.83 512.11 1442.82 511.76Q1441.82 511.42 1440.32 511.42Q1437.77 511.42 1436.34 512.63Q1434.92 513.85 1434.92 515.86Q1434.92 517.27 1435.58 518.26Q1436.24 519.25 1437.33 519.77Q1438.43 520.30 1439.69 520.30Q1440.83 520.30 1441.98 519.88Q1443.14 519.46 1443.93 518.59Q1444.73 517.72 1444.73 516.40L1444.25 514.60Q1444.25 515.68 1443.72 516.50Q1443.20 517.33 1442.31 517.78Q1441.43 518.23 1440.32 518.23Q1439.45 518.23 1438.77 517.94Q1438.10 517.66 1437.72 517.09Q1437.35 516.52 1437.35 515.74ZM1436.99 509.38Q1437.32 509.14 1437.89 508.81Q1438.46 508.48 1439.28 508.24Q1440.11 508.00 1441.13 508.00Q1441.76 508.00 1442.33 508.12Q1442.90 508.24 1443.33 508.51Q1443.77 508.78 1444.01 509.25Q1444.25 509.71 1444.25 510.43V520.00H1446.65V510.10Q1446.65 508.75 1445.97 507.82Q1445.30 506.89 1444.08 506.39Q1442.87 505.90 1441.25 505.90Q1439.33 505.90 1437.96 506.47Q1436.60 507.04 1435.82 507.61Z M1451.27 515.77 1449.38 516.94Q1449.77 517.75 1450.53 518.53Q1451.30 519.31 1452.41 519.80Q1453.52 520.30 1454.90 520.30Q1457.03 520.30 1458.33 519.10Q1459.64 517.90 1459.64 516.10Q1459.64 514.87 1459.05 514.09Q1458.47 513.31 1457.48 512.75Q1456.49 512.20 1455.29 511.72Q1454.57 511.42 1453.91 511.09Q1453.25 510.76 1452.83 510.34Q1452.41 509.92 1452.41 509.38Q1452.41 508.69 1452.95 508.36Q1453.49 508.03 1454.24 508.03Q1455.32 508.03 1456.17 508.54Q1457.03 509.05 1457.60 509.83L1459.52 508.60Q1459.10 507.82 1458.35 507.22Q1457.60 506.62 1456.62 506.26Q1455.65 505.90 1454.54 505.90Q1453.43 505.90 1452.39 506.29Q1451.36 506.68 1450.71 507.49Q1450.07 508.30 1450.07 509.53Q1450.07 510.73 1450.68 511.53Q1451.30 512.32 1452.21 512.82Q1453.13 513.31 1454.03 513.67Q1454.84 513.97 1455.56 514.32Q1456.28 514.66 1456.74 515.15Q1457.21 515.65 1457.21 516.37Q1457.21 517.18 1456.62 517.64Q1456.04 518.11 1455.02 518.11Q1454.18 518.11 1453.47 517.80Q1452.77 517.48 1452.23 516.94Q1451.69 516.40 1451.27 515.77Z M1460.69 506.20V508.45H1467.59V506.20ZM1462.94 501.40V520.00H1465.34V501.40Z M1470.56 515.77 1468.67 516.94Q1469.06 517.75 1469.82 518.53Q1470.59 519.31 1471.70 519.80Q1472.81 520.30 1474.19 520.30Q1476.32 520.30 1477.62 519.10Q1478.93 517.90 1478.93 516.10Q1478.93 514.87 1478.34 514.09Q1477.76 513.31 1476.77 512.75Q1475.78 512.20 1474.58 511.72Q1473.86 511.42 1473.20 511.09Q1472.54 510.76 1472.12 510.34Q1471.70 509.92 1471.70 509.38Q1471.70 508.69 1472.24 508.36Q1472.78 508.03 1473.53 508.03Q1474.61 508.03 1475.46 508.54Q1476.32 509.05 1476.89 509.83L1478.81 508.60Q1478.39 507.82 1477.64 507.22Q1476.89 506.62 1475.91 506.26Q1474.94 505.90 1473.83 505.90Q1472.72 505.90 1471.68 506.29Q1470.65 506.68 1470.00 507.49Q1469.36 508.30 1469.36 509.53Q1469.36 510.73 1469.97 511.53Q1470.59 512.32 1471.50 512.82Q1472.42 513.31 1473.32 513.67Q1474.13 513.97 1474.85 514.32Q1475.57 514.66 1476.03 515.15Q1476.50 515.65 1476.50 516.37Q1476.50 517.18 1475.91 517.64Q1475.33 518.11 1474.31 518.11Q1473.47 518.11 1472.76 517.80Q1472.06 517.48 1471.52 516.94Q1470.98 516.40 1470.56 515.77Z" fill="#4F6472"/>
<path d="M1787.57 389.80V408.00H1790.63V389.80ZM1789.39 392.50H1793.05Q1794.64 392.50 1795.60 393.25Q1796.56 393.99 1796.56 395.44Q1796.56 396.90 1795.60 397.65Q1794.64 398.41 1793.05 398.41H1789.39V401.11H1793.05Q1795.05 401.11 1796.51 400.42Q1797.97 399.73 1798.79 398.46Q1799.60 397.18 1799.60 395.44Q1799.60 393.70 1798.79 392.44Q1797.97 391.18 1796.51 390.49Q1795.05 389.80 1793.05 389.80H1789.39Z M1808.50 399.65H1821.50V396.82H1808.50ZM1819.49 389.80V408.00H1822.56V389.80ZM1807.27 389.80V408.00H1810.34V389.80Z M1833.48 403.32H1843.10L1842.53 400.72H1834.08ZM1838.24 394.95 1841.15 401.71 1841.20 402.46 1843.67 408.00H1847.16L1838.24 388.79L1829.35 408.00H1832.81L1835.33 402.31L1835.38 401.63Z M1855.11 402.12 1852.83 403.74Q1853.42 404.98 1854.45 406.05Q1855.48 407.12 1856.84 407.75Q1858.21 408.39 1859.79 408.39Q1860.96 408.39 1862.04 408.01Q1863.12 407.64 1863.98 406.95Q1864.84 406.26 1865.35 405.24Q1865.85 404.23 1865.85 402.96Q1865.85 401.76 1865.44 400.86Q1865.02 399.97 1864.36 399.32Q1863.69 398.67 1862.88 398.22Q1862.06 397.78 1861.22 397.50Q1859.77 396.98 1858.86 396.48Q1857.95 395.99 1857.52 395.43Q1857.09 394.87 1857.09 394.17Q1857.09 393.39 1857.69 392.80Q1858.29 392.22 1859.56 392.22Q1860.47 392.22 1861.16 392.57Q1861.85 392.92 1862.37 393.50Q1862.89 394.09 1863.25 394.77L1865.72 393.36Q1865.28 392.40 1864.45 391.52Q1863.62 390.63 1862.42 390.05Q1861.22 389.46 1859.61 389.46Q1857.97 389.46 1856.69 390.09Q1855.40 390.71 1854.65 391.81Q1853.89 392.92 1853.89 394.38Q1853.89 395.65 1854.39 396.55Q1854.88 397.44 1855.63 398.06Q1856.39 398.67 1857.22 399.07Q1858.05 399.47 1858.73 399.71Q1859.87 400.12 1860.76 400.55Q1861.64 400.98 1862.12 401.59Q1862.60 402.20 1862.60 403.19Q1862.60 404.28 1861.82 404.96Q1861.04 405.63 1859.79 405.63Q1858.78 405.63 1857.94 405.19Q1857.09 404.75 1856.40 403.97Q1855.71 403.19 1855.11 402.12Z M1875.55 408.00H1884.73V405.30H1875.55ZM1875.55 392.50H1884.73V389.80H1875.55ZM1875.55 399.58H1884.21V396.92H1875.55ZM1873.65 389.80V408.00H1876.67V389.80Z M1904.10 404.52H1919.07V401.86H1915.36L1914.91 402.07H1908.60L1913.28 395.29V403.14L1913.07 403.42V408.00H1916.21V389.80H1914.37Z" fill="#4F6472"/>
<path d="M1821.88 452.29Q1821.88 460.28 1817.18 465.14Q1812.48 470.00 1804.17 470.00H1787.64V463.84H1791.42V441.06H1787.64V434.90H1803.74Q1812.75 434.90 1817.32 439.71Q1821.88 444.51 1821.88 452.29ZM1814.10 452.40Q1814.10 441.06 1803.57 441.06H1798.66V463.84H1803.57Q1808.65 463.84 1811.38 461.14Q1814.10 458.44 1814.10 452.40Z M1848.23 462.33Q1847.96 465.57 1845.05 468.06Q1842.13 470.54 1836.89 470.54Q1831.44 470.54 1827.90 467.46Q1824.36 464.38 1824.36 458.28Q1824.36 452.67 1827.58 448.91Q1830.79 445.16 1836.57 445.16Q1841.64 445.16 1844.80 448.08Q1847.96 450.99 1848.02 455.74Q1848.02 457.53 1847.64 459.25H1831.65Q1832.25 465.03 1837.38 465.03Q1840.19 465.03 1841.19 463.68Q1842.18 462.33 1842.40 461.25ZM1840.83 455.20Q1841.05 453.37 1840.05 451.75Q1839.05 450.13 1836.57 450.13Q1834.41 450.13 1833.22 451.53Q1832.03 452.94 1831.71 455.20Z M1895.97 470.00H1885.76V456.28Q1885.76 453.15 1884.71 451.80Q1883.66 450.45 1881.60 450.45Q1879.12 450.45 1878.01 452.07Q1876.91 453.69 1876.91 456.23V464.76H1880.15V470.00H1869.94V456.28Q1869.94 453.15 1868.89 451.80Q1867.83 450.45 1865.78 450.45Q1863.24 450.45 1862.16 452.07Q1861.08 453.69 1861.08 456.23V464.76H1865.73V470.00H1850.88V464.76H1854.12V450.94H1850.93V445.65H1861.08V449.32Q1863.41 445.16 1868.48 445.16Q1871.13 445.16 1873.34 446.46Q1875.56 447.75 1876.42 450.40Q1878.58 445.16 1884.36 445.16Q1887.65 445.16 1890.19 447.21Q1892.73 449.26 1892.73 453.58V464.76H1895.97Z M1923.78 457.85Q1923.78 463.63 1920.00 467.08Q1916.22 470.54 1910.39 470.54Q1904.77 470.54 1901.23 467.27Q1897.70 464.01 1897.70 458.12Q1897.70 452.77 1900.94 448.94Q1904.18 445.11 1910.76 445.11Q1917.35 445.11 1920.57 448.91Q1923.78 452.72 1923.78 457.85ZM1916.60 457.63Q1916.60 453.91 1914.87 452.18Q1913.14 450.45 1910.66 450.45Q1907.96 450.45 1906.42 452.37Q1904.88 454.29 1904.88 457.74Q1904.88 460.87 1906.31 463.03Q1907.74 465.19 1910.60 465.19Q1913.30 465.19 1914.95 463.17Q1916.60 461.14 1916.60 457.63Z M1953.48 457.26Q1953.48 462.66 1950.64 466.60Q1947.81 470.54 1942.30 470.54Q1936.74 470.54 1934.47 466.33Q1934.36 467.25 1934.23 468.16Q1934.09 469.08 1933.93 470.00H1926.96Q1927.34 468.11 1927.61 466.22Q1927.88 464.33 1927.88 462.49V438.14H1924.64V432.85H1934.85V450.29Q1935.82 448.18 1937.79 446.67Q1939.76 445.16 1943.06 445.16Q1947.65 445.16 1950.56 448.35Q1953.48 451.53 1953.48 457.26ZM1946.24 457.85Q1946.24 454.34 1944.73 452.50Q1943.22 450.67 1940.73 450.67Q1937.93 450.67 1936.39 452.72Q1934.85 454.77 1934.85 457.47V458.07Q1934.85 461.04 1936.33 463.06Q1937.82 465.09 1940.57 465.09Q1942.95 465.09 1944.60 463.33Q1946.24 461.58 1946.24 457.85Z M1959.31 441.33V434.09H1966.28V441.33ZM1969.79 470.00H1956.34V464.76H1959.58V450.94H1956.07V445.65H1966.55V464.76H1969.79Z M1985.18 470.00H1971.73V464.76H1974.97V438.14H1971.46V432.85H1981.94V464.76H1985.18Z M1990.85 441.33V434.09H1997.81V441.33ZM2001.32 470.00H1987.88V464.76H1991.12V450.94H1987.61V445.65H1998.08V464.76H2001.32Z M2025.51 470.00H2004.24L2003.54 466.33L2016.60 450.88H2009.31L2008.23 454.61L2003.21 454.18L2004.08 445.65H2025.46L2026.00 449.32L2012.55 464.76H2020.38L2021.52 460.93L2027.03 461.47Z M2031.72 447.37Q2034.91 446.08 2037.04 445.62Q2039.18 445.16 2042.15 445.16Q2046.09 445.16 2048.95 447.21Q2051.81 449.26 2051.81 453.42V464.01Q2051.81 465.90 2053.49 465.90Q2053.97 465.90 2054.51 465.73L2054.57 469.41Q2052.46 470.54 2050.19 470.54Q2045.39 470.54 2044.85 465.73V465.68Q2043.82 467.52 2041.90 469.03Q2039.99 470.54 2037.02 470.54Q2034.37 470.54 2031.94 468.97Q2029.51 467.41 2029.51 463.57Q2029.51 459.09 2033.10 457.63Q2036.69 456.18 2040.85 456.18Q2043.17 456.18 2044.85 456.39V455.58Q2044.85 453.69 2044.33 451.91Q2043.82 450.13 2040.85 450.13Q2039.77 450.13 2038.88 450.26Q2037.99 450.40 2037.12 450.83L2036.21 454.29L2030.64 453.69ZM2044.85 460.06V459.74Q2043.98 459.63 2043.09 459.52Q2042.20 459.42 2041.34 459.42Q2039.50 459.42 2038.10 460.09Q2036.69 460.77 2036.69 462.76Q2036.69 463.95 2037.34 464.76Q2037.99 465.57 2039.55 465.57Q2041.39 465.57 2042.98 464.25Q2044.58 462.93 2044.85 460.06Z M2077.30 462.44Q2076.76 466.65 2074.38 468.60Q2072.01 470.54 2068.23 470.54Q2064.18 470.54 2061.67 468.51Q2059.16 466.49 2059.16 462.71V450.61H2055.70V445.65H2059.16V438.25H2066.12V445.65H2074.87V450.61H2066.12V461.52Q2066.12 464.71 2069.04 464.71Q2069.69 464.71 2070.79 464.14Q2071.90 463.57 2072.22 460.87Z M2081.57 441.33V434.09H2088.53V441.33ZM2092.04 470.00H2078.60V464.76H2081.84V450.94H2078.33V445.65H2088.80V464.76H2092.04Z M2120.18 457.85Q2120.18 463.63 2116.40 467.08Q2112.62 470.54 2106.78 470.54Q2101.17 470.54 2097.63 467.27Q2094.09 464.01 2094.09 458.12Q2094.09 452.77 2097.33 448.94Q2100.57 445.11 2107.16 445.11Q2113.75 445.11 2116.96 448.91Q2120.18 452.72 2120.18 457.85ZM2112.99 457.63Q2112.99 453.91 2111.27 452.18Q2109.54 450.45 2107.05 450.45Q2104.35 450.45 2102.82 452.37Q2101.28 454.29 2101.28 457.74Q2101.28 460.87 2102.71 463.03Q2104.14 465.19 2107.00 465.19Q2109.70 465.19 2111.35 463.17Q2112.99 461.14 2112.99 457.63Z M2152.63 470.00H2139.18V464.76H2142.42V456.28Q2142.42 453.15 2141.37 451.80Q2140.32 450.45 2138.27 450.45Q2135.78 450.45 2134.43 451.99Q2133.08 453.53 2133.03 456.01V464.76H2136.27V470.00H2122.82V464.76H2126.06V450.94H2122.55V445.65H2133.03V449.37Q2135.46 445.16 2140.86 445.16Q2144.31 445.16 2146.85 447.21Q2149.39 449.26 2149.39 453.58V464.76H2152.63Z" fill="#08355A"/>
<path d="M1786.14 520.00H1800.96V517.60H1791.39L1798.08 510.79Q1799.31 509.53 1800.09 507.94Q1800.87 506.35 1800.87 504.73Q1800.87 503.77 1800.48 502.72Q1800.09 501.67 1799.28 500.75Q1798.47 499.84 1797.21 499.25Q1795.95 498.67 1794.21 498.67Q1792.05 498.67 1790.50 499.62Q1788.96 500.56 1788.15 502.25Q1787.34 503.95 1787.34 506.20H1789.89Q1789.89 504.61 1790.40 503.46Q1790.91 502.30 1791.88 501.69Q1792.86 501.07 1794.21 501.07Q1795.17 501.07 1795.92 501.40Q1796.67 501.73 1797.19 502.27Q1797.72 502.81 1797.99 503.47Q1798.26 504.13 1798.26 504.82Q1798.26 505.66 1798.00 506.43Q1797.75 507.19 1797.25 507.93Q1796.76 508.66 1796.07 509.41Z M1804.71 514.00H1822.71V511.75H1804.71Z M1832.40 509.65Q1834.44 509.65 1835.97 508.93Q1837.50 508.21 1838.37 506.98Q1839.24 505.75 1839.24 504.28Q1839.24 502.78 1838.53 501.52Q1837.83 500.26 1836.52 499.48Q1835.22 498.70 1833.42 498.70Q1831.71 498.70 1830.37 499.40Q1829.04 500.11 1828.27 501.34Q1827.51 502.57 1827.51 504.22H1829.94Q1829.94 502.84 1830.96 501.92Q1831.98 501.01 1833.45 501.01Q1834.50 501.01 1835.20 501.43Q1835.91 501.85 1836.27 502.62Q1836.63 503.38 1836.63 504.37Q1836.63 505.12 1836.34 505.78Q1836.06 506.44 1835.52 506.94Q1834.98 507.43 1834.20 507.72Q1833.42 508.00 1832.40 508.00ZM1833.30 520.30Q1835.19 520.30 1836.66 519.58Q1838.13 518.86 1838.98 517.54Q1839.84 516.22 1839.84 514.45Q1839.84 512.89 1839.25 511.78Q1838.67 510.67 1837.63 509.97Q1836.60 509.26 1835.26 508.93Q1833.93 508.60 1832.40 508.60V510.25Q1833.42 510.25 1834.29 510.49Q1835.16 510.73 1835.82 511.23Q1836.48 511.72 1836.85 512.46Q1837.23 513.19 1837.23 514.15Q1837.23 515.29 1836.75 516.13Q1836.27 516.97 1835.38 517.43Q1834.50 517.90 1833.30 517.90Q1832.10 517.90 1831.17 517.45Q1830.24 517.00 1829.71 516.22Q1829.19 515.44 1829.19 514.45H1826.61Q1826.61 515.68 1827.09 516.74Q1827.57 517.81 1828.44 518.61Q1829.31 519.40 1830.54 519.85Q1831.77 520.30 1833.30 520.30Z M1862.79 496.60V520.00H1865.19V496.60ZM1851.24 513.10Q1851.24 515.32 1852.17 516.94Q1853.10 518.56 1854.66 519.43Q1856.22 520.30 1858.08 520.30Q1859.82 520.30 1861.11 519.43Q1862.40 518.56 1863.13 516.94Q1863.87 515.32 1863.87 513.10Q1863.87 510.85 1863.13 509.25Q1862.40 507.64 1861.11 506.77Q1859.82 505.90 1858.08 505.90Q1856.22 505.90 1854.66 506.77Q1853.10 507.64 1852.17 509.25Q1851.24 510.85 1851.24 513.10ZM1853.67 513.10Q1853.67 511.51 1854.31 510.40Q1854.96 509.29 1856.04 508.72Q1857.12 508.15 1858.38 508.15Q1859.43 508.15 1860.45 508.72Q1861.47 509.29 1862.13 510.40Q1862.79 511.51 1862.79 513.10Q1862.79 514.69 1862.13 515.80Q1861.47 516.91 1860.45 517.48Q1859.43 518.05 1858.38 518.05Q1857.12 518.05 1856.04 517.48Q1854.96 516.91 1854.31 515.80Q1853.67 514.69 1853.67 513.10Z M1870.62 515.74Q1870.62 514.99 1870.98 514.45Q1871.34 513.91 1872.07 513.61Q1872.81 513.31 1873.98 513.31Q1875.24 513.31 1876.35 513.62Q1877.46 513.94 1878.51 514.66V513.25Q1878.30 512.98 1877.70 512.55Q1877.10 512.11 1876.09 511.76Q1875.09 511.42 1873.59 511.42Q1871.04 511.42 1869.61 512.63Q1868.19 513.85 1868.19 515.86Q1868.19 517.27 1868.85 518.26Q1869.51 519.25 1870.60 519.77Q1871.70 520.30 1872.96 520.30Q1874.10 520.30 1875.25 519.88Q1876.41 519.46 1877.20 518.59Q1878.00 517.72 1878.00 516.40L1877.52 514.60Q1877.52 515.68 1876.99 516.50Q1876.47 517.33 1875.58 517.78Q1874.70 518.23 1873.59 518.23Q1872.72 518.23 1872.04 517.94Q1871.37 517.66 1870.99 517.09Q1870.62 516.52 1870.62 515.74ZM1870.26 509.38Q1870.59 509.14 1871.16 508.81Q1871.73 508.48 1872.55 508.24Q1873.38 508.00 1874.40 508.00Q1875.03 508.00 1875.60 508.12Q1876.17 508.24 1876.60 508.51Q1877.04 508.78 1877.28 509.25Q1877.52 509.71 1877.52 510.43V520.00H1879.92V510.10Q1879.92 508.75 1879.24 507.82Q1878.57 506.89 1877.35 506.39Q1876.14 505.90 1874.52 505.90Q1872.60 505.90 1871.23 506.47Q1869.87 507.04 1869.09 507.61Z M1894.92 506.20H1892.22L1887.96 516.88L1888.95 517.00L1884.57 506.20H1881.72L1887.00 518.05L1883.22 526.60H1885.92Z M1897.74 515.77 1895.85 516.94Q1896.24 517.75 1897.00 518.53Q1897.77 519.31 1898.88 519.80Q1899.99 520.30 1901.37 520.30Q1903.50 520.30 1904.80 519.10Q1906.11 517.90 1906.11 516.10Q1906.11 514.87 1905.52 514.09Q1904.94 513.31 1903.95 512.75Q1902.96 512.20 1901.76 511.72Q1901.04 511.42 1900.38 511.09Q1899.72 510.76 1899.30 510.34Q1898.88 509.92 1898.88 509.38Q1898.88 508.69 1899.42 508.36Q1899.96 508.03 1900.71 508.03Q1901.79 508.03 1902.64 508.54Q1903.50 509.05 1904.07 509.83L1905.99 508.60Q1905.57 507.82 1904.82 507.22Q1904.07 506.62 1903.09 506.26Q1902.12 505.90 1901.01 505.90Q1899.90 505.90 1898.86 506.29Q1897.83 506.68 1897.18 507.49Q1896.54 508.30 1896.54 509.53Q1896.54 510.73 1897.15 511.53Q1897.77 512.32 1898.68 512.82Q1899.60 513.31 1900.50 513.67Q1901.31 513.97 1902.03 514.32Q1902.75 514.66 1903.21 515.15Q1903.68 515.65 1903.68 516.37Q1903.68 517.18 1903.09 517.64Q1902.51 518.11 1901.49 518.11Q1900.65 518.11 1899.94 517.80Q1899.24 517.48 1898.70 516.94Q1898.16 516.40 1897.74 515.77Z" fill="#4F6472"/>
</svg>