<svg xmlns="http://www.w3.org/2000/svg" viewBox="0 0 588 277" width="588" height="277" role="img" aria-label="6–7 days from call to crew on your line.">
<defs><filter id="sh" x="-12%" y="-24%" width="128%" height="150%"><feDropShadow dx="0" dy="6" stdDeviation="12" flood-color="#062A45" flood-opacity="0.28"/></filter></defs>
<g filter="url(#sh)">
<rect x="26" y="26" width="536" height="225" rx="8" fill="#FFFFFF"/>
<path d="M 26 34 A 8 8 0 0 1 34 26 H 36 V 251 H 34 A 8 8 0 0 1 26 243 Z" fill="#E8701A"/>
</g>
<path d="M126.35 113.99Q126.35 122.79 120.85 128.34Q115.35 133.88 105.94 133.88Q94.67 133.88 89.70 125.96Q84.73 118.04 84.73 105.63Q84.73 97.54 86.93 90.54Q89.13 83.54 94.19 79.23Q99.25 74.92 107.96 74.92Q112.80 74.92 117.38 76.68Q121.95 78.44 125.03 82.84L118.26 89.62Q114.82 84.95 107.52 84.95Q102.33 84.95 100.08 88.56Q97.84 92.17 97.49 100.88Q97.40 101.50 97.40 102.90Q98.90 100.09 101.98 98.06Q105.06 96.04 110.25 96.04Q119.14 96.04 122.74 101.76Q126.35 107.48 126.35 113.99ZM114.21 114.43Q114.21 110.38 112.45 108.01Q110.69 105.63 106.38 105.63Q102.06 105.63 99.95 107.88Q97.84 110.12 97.66 113.55Q98.10 118.66 99.95 121.08Q101.80 123.50 106.11 123.50Q114.21 123.50 114.21 114.43Z M133.04 108.54H177.22V116.02H133.04Z M224.21 92.70 203.97 144.44H192.35L211.45 97.10H193.50V106.69H183.20V87.15H222.80Z M290.03 133.00H273.40V125.61Q271.73 129.04 268.47 131.46Q265.22 133.88 259.85 133.88Q252.02 133.88 247.53 128.51Q243.04 123.14 243.04 113.90Q243.04 105.02 247.44 98.77Q251.84 92.52 260.73 92.52Q265.57 92.52 268.65 94.46Q271.73 96.39 273.40 99.38V81.08H265.48V72.46H284.75V124.46H290.03ZM273.40 112.94V111.97Q273.40 107.04 270.80 104.27Q268.21 101.50 264.34 101.50Q260.55 101.50 257.69 104.31Q254.83 107.13 254.83 113.20Q254.83 118.92 257.47 121.91Q260.11 124.90 263.72 124.90Q268.21 124.90 270.80 121.12Q273.40 117.34 273.40 112.94Z M297.25 96.13Q302.44 94.02 305.92 93.27Q309.39 92.52 314.23 92.52Q320.66 92.52 325.32 95.86Q329.98 99.21 329.98 105.98V123.23Q329.98 126.31 332.71 126.31Q333.50 126.31 334.38 126.05L334.47 132.03Q331.04 133.88 327.34 133.88Q319.51 133.88 318.63 126.05V125.96Q316.96 128.95 313.84 131.42Q310.71 133.88 305.87 133.88Q301.56 133.88 297.60 131.33Q293.64 128.78 293.64 122.53Q293.64 115.22 299.49 112.85Q305.34 110.47 312.12 110.47Q315.90 110.47 318.63 110.82V109.50Q318.63 106.42 317.80 103.52Q316.96 100.62 312.12 100.62Q310.36 100.62 308.91 100.84Q307.46 101.06 306.05 101.76L304.55 107.39L295.49 106.42ZM318.63 116.81V116.28Q317.22 116.10 315.77 115.93Q314.32 115.75 312.91 115.75Q309.92 115.75 307.63 116.85Q305.34 117.95 305.34 121.21Q305.34 123.14 306.40 124.46Q307.46 125.78 310.01 125.78Q313.00 125.78 315.60 123.63Q318.19 121.47 318.63 116.81Z M381.82 101.85H377.94L365.18 133.00L361.40 142.94H366.59V151.74H344.68V142.94H351.02L354.18 133.62L340.28 101.85H336.23V93.31H356.47V101.85H352.51L360.61 120.15H361.14L367.12 101.85H363.69V93.31H381.82Z M420.71 120.86Q420.71 127.46 415.48 130.67Q410.24 133.88 401.88 133.88Q397.57 133.88 393.21 132.96Q388.86 132.03 384.90 130.01L386.48 118.92L395.28 119.89V124.82Q396.86 125.34 398.62 125.48Q400.38 125.61 401.26 125.61Q404.52 125.61 406.90 124.55Q409.27 123.50 409.27 121.38Q409.27 118.83 405.66 118.04Q402.06 117.25 397.30 116.46Q392.55 115.66 388.94 113.20Q385.34 110.74 385.34 104.84Q385.34 97.54 391.01 95.03Q396.69 92.52 402.76 92.52Q410.68 92.52 417.63 96.13L418.60 106.25L409.80 107.22L409.10 101.67Q406.19 100.70 402.85 100.70Q400.65 100.70 399.11 101.63Q397.57 102.55 397.57 104.49Q397.57 107.04 401.04 107.88Q404.52 108.71 409.14 109.50Q413.76 110.30 417.24 112.72Q420.71 115.14 420.71 120.86Z" fill="#0D4A7C"/>
<path d="M83.36 179.36V181.91H91.18V179.36ZM90.91 171.74 92.40 169.50Q92.17 169.16 91.74 168.85Q91.32 168.55 90.74 168.34Q90.16 168.14 89.41 168.14Q87.98 168.14 86.98 168.73Q85.98 169.33 85.43 170.52Q84.89 171.71 84.89 173.58V195.00H87.61V173.92Q87.61 172.80 87.81 172.12Q88.02 171.44 88.38 171.15Q88.73 170.86 89.24 170.86Q89.65 170.86 90.11 171.01Q90.57 171.17 90.91 171.74Z M96.99 179.36H94.27V195.00H96.99ZM101.72 182.35 103.22 180.11Q102.60 179.46 101.87 179.24Q101.14 179.02 100.29 179.02Q99.20 179.02 98.15 179.87Q97.10 180.72 96.43 182.17Q95.77 183.61 95.77 185.48H96.99Q96.99 184.36 97.22 183.47Q97.44 182.59 98.01 182.08Q98.59 181.57 99.61 181.57Q100.29 181.57 100.73 181.76Q101.18 181.94 101.72 182.35Z M104.58 187.18Q104.58 189.53 105.65 191.38Q106.72 193.23 108.55 194.29Q110.39 195.34 112.67 195.34Q114.98 195.34 116.80 194.29Q118.62 193.23 119.69 191.38Q120.76 189.53 120.76 187.18Q120.76 184.80 119.69 182.96Q118.62 181.13 116.80 180.07Q114.98 179.02 112.67 179.02Q110.39 179.02 108.55 180.07Q106.72 181.13 105.65 182.96Q104.58 184.80 104.58 187.18ZM107.33 187.18Q107.33 185.55 108.03 184.27Q108.72 183.00 109.93 182.28Q111.14 181.57 112.67 181.57Q114.20 181.57 115.41 182.28Q116.61 183.00 117.31 184.27Q118.01 185.55 118.01 187.18Q118.01 188.81 117.31 190.07Q116.61 191.33 115.41 192.06Q114.20 192.79 112.67 192.79Q111.14 192.79 109.93 192.06Q108.72 191.33 108.03 190.07Q107.33 188.81 107.33 187.18Z M145.92 185.14Q145.92 183.20 145.33 181.82Q144.73 180.45 143.61 179.73Q142.49 179.02 140.89 179.02Q139.32 179.02 138.10 179.75Q136.88 180.48 136.06 181.94Q135.52 180.55 134.34 179.79Q133.17 179.02 131.54 179.02Q130.08 179.02 129.01 179.67Q127.93 180.31 127.22 181.64V179.36H124.50V195.00H127.22V185.48Q127.22 184.26 127.66 183.37Q128.10 182.49 128.92 182.03Q129.74 181.57 130.86 181.57Q132.39 181.57 133.12 182.52Q133.85 183.47 133.85 185.48V195.00H136.57V185.48Q136.57 184.26 137.01 183.37Q137.45 182.49 138.27 182.03Q139.09 181.57 140.21 181.57Q141.74 181.57 142.47 182.52Q143.20 183.47 143.20 185.48V195.00H145.92Z M162.44 187.18Q162.44 185.55 163.14 184.27Q163.84 183.00 165.05 182.28Q166.25 181.57 167.78 181.57Q169.04 181.57 170.15 181.96Q171.25 182.35 172.07 183.00Q172.88 183.64 173.22 184.43V181.03Q172.41 180.07 170.89 179.55Q169.38 179.02 167.78 179.02Q165.50 179.02 163.67 180.07Q161.83 181.13 160.76 182.96Q159.69 184.80 159.69 187.18Q159.69 189.53 160.76 191.38Q161.83 193.23 163.67 194.29Q165.50 195.34 167.78 195.34Q169.38 195.34 170.89 194.81Q172.41 194.29 173.22 193.33V189.93Q172.88 190.68 172.07 191.34Q171.25 192.01 170.15 192.40Q169.04 192.79 167.78 192.79Q166.25 192.79 165.05 192.06Q163.84 191.33 163.14 190.07Q162.44 188.81 162.44 187.18Z M178.70 190.17Q178.70 189.32 179.10 188.71Q179.51 188.10 180.35 187.76Q181.18 187.42 182.50 187.42Q183.93 187.42 185.19 187.78Q186.45 188.13 187.64 188.95V187.35Q187.40 187.04 186.72 186.55Q186.04 186.06 184.90 185.67Q183.76 185.28 182.06 185.28Q179.17 185.28 177.56 186.65Q175.94 188.03 175.94 190.31Q175.94 191.91 176.69 193.03Q177.44 194.15 178.68 194.75Q179.92 195.34 181.35 195.34Q182.64 195.34 183.95 194.86Q185.26 194.39 186.16 193.40Q187.06 192.42 187.06 190.92L186.52 188.88Q186.52 190.10 185.92 191.04Q185.33 191.97 184.32 192.48Q183.32 192.99 182.06 192.99Q181.08 192.99 180.31 192.67Q179.55 192.35 179.12 191.70Q178.70 191.06 178.70 190.17ZM178.29 182.96Q178.66 182.69 179.31 182.32Q179.95 181.94 180.89 181.67Q181.82 181.40 182.98 181.40Q183.69 181.40 184.34 181.54Q184.99 181.67 185.48 181.98Q185.97 182.28 186.24 182.81Q186.52 183.34 186.52 184.15V195.00H189.24V183.78Q189.24 182.25 188.47 181.20Q187.71 180.14 186.33 179.58Q184.95 179.02 183.12 179.02Q180.94 179.02 179.39 179.67Q177.85 180.31 176.96 180.96Z M193.83 168.48V195.00H196.55V168.48Z M201.65 168.48V195.00H204.37V168.48Z M217.29 179.36V181.91H225.11V179.36ZM219.84 173.92V195.00H222.56V173.92Z M226.47 187.18Q226.47 189.53 227.54 191.38Q228.61 193.23 230.44 194.29Q232.28 195.34 234.56 195.34Q236.87 195.34 238.69 194.29Q240.51 193.23 241.58 191.38Q242.65 189.53 242.65 187.18Q242.65 184.80 241.58 182.96Q240.51 181.13 238.69 180.07Q236.87 179.02 234.56 179.02Q232.28 179.02 230.44 180.07Q228.61 181.13 227.54 182.96Q226.47 184.80 226.47 187.18ZM229.22 187.18Q229.22 185.55 229.92 184.27Q230.61 183.00 231.82 182.28Q233.03 181.57 234.56 181.57Q236.09 181.57 237.30 182.28Q238.50 183.00 239.20 184.27Q239.90 185.55 239.90 187.18Q239.90 188.81 239.20 190.07Q238.50 191.33 237.30 192.06Q236.09 192.79 234.56 192.79Q233.03 192.79 231.82 192.06Q230.61 191.33 229.92 190.07Q229.22 188.81 229.22 187.18Z M257.81 187.18Q257.81 185.55 258.51 184.27Q259.21 183.00 260.41 182.28Q261.62 181.57 263.15 181.57Q264.41 181.57 265.51 181.96Q266.62 182.35 267.44 183.00Q268.25 183.64 268.59 184.43V181.03Q267.78 180.07 266.26 179.55Q264.75 179.02 263.15 179.02Q260.87 179.02 259.04 180.07Q257.20 181.13 256.13 182.96Q255.06 184.80 255.06 187.18Q255.06 189.53 256.13 191.38Q257.20 193.23 259.04 194.29Q260.87 195.34 263.15 195.34Q264.75 195.34 266.26 194.81Q267.78 194.29 268.59 193.33V189.93Q268.25 190.68 267.44 191.34Q266.62 192.01 265.51 192.40Q264.41 192.79 263.15 192.79Q261.62 192.79 260.41 192.06Q259.21 191.33 258.51 190.07Q257.81 188.81 257.81 187.18Z M275.56 179.36H272.84V195.00H275.56ZM280.29 182.35 281.78 180.11Q281.17 179.46 280.44 179.24Q279.71 179.02 278.86 179.02Q277.77 179.02 276.72 179.87Q275.66 180.72 275.00 182.17Q274.34 183.61 274.34 185.48H275.56Q275.56 184.36 275.78 183.47Q276.00 182.59 276.58 182.08Q277.16 181.57 278.18 181.57Q278.86 181.57 279.30 181.76Q279.74 181.94 280.29 182.35Z M290.56 195.34Q293.07 195.34 294.92 194.34Q296.78 193.33 298.00 191.36L295.79 189.97Q294.94 191.40 293.72 192.09Q292.49 192.79 290.90 192.79Q289.30 192.79 288.18 192.11Q287.05 191.43 286.48 190.14Q285.90 188.85 285.90 187.01Q285.93 185.21 286.53 183.97Q287.12 182.73 288.23 182.06Q289.33 181.40 290.90 181.40Q292.22 181.40 293.21 181.98Q294.19 182.56 294.75 183.58Q295.32 184.60 295.32 185.99Q295.32 186.23 295.21 186.59Q295.11 186.94 295.01 187.11L296.10 185.55H284.88V187.86H298.24Q298.24 187.79 298.26 187.54Q298.27 187.28 298.27 187.04Q298.27 184.56 297.39 182.76Q296.51 180.96 294.86 179.99Q293.21 179.02 290.90 179.02Q288.58 179.02 286.83 180.04Q285.08 181.06 284.11 182.90Q283.14 184.73 283.14 187.18Q283.14 189.59 284.08 191.43Q285.01 193.27 286.70 194.30Q288.38 195.34 290.56 195.34Z M299.63 179.36 306.43 196.19 310.89 184.80 315.61 196.19 322.41 179.36H319.35L315.41 189.59L310.85 178.17L306.60 189.53L302.69 179.36Z M333.97 187.18Q333.97 189.53 335.04 191.38Q336.12 193.23 337.95 194.29Q339.79 195.34 342.07 195.34Q344.38 195.34 346.20 194.29Q348.02 193.23 349.09 191.38Q350.16 189.53 350.16 187.18Q350.16 184.80 349.09 182.96Q348.02 181.13 346.20 180.07Q344.38 179.02 342.07 179.02Q339.79 179.02 337.95 180.07Q336.12 181.13 335.04 182.96Q333.97 184.80 333.97 187.18ZM336.73 187.18Q336.73 185.55 337.42 184.27Q338.12 183.00 339.33 182.28Q340.54 181.57 342.07 181.57Q343.60 181.57 344.80 182.28Q346.01 183.00 346.71 184.27Q347.40 185.55 347.40 187.18Q347.40 188.81 346.71 190.07Q346.01 191.33 344.80 192.06Q343.60 192.79 342.07 192.79Q340.54 192.79 339.33 192.06Q338.12 191.33 337.42 190.07Q336.73 188.81 336.73 187.18Z M363.93 185.48V195.00H366.65V185.14Q366.65 182.32 365.20 180.67Q363.76 179.02 361.28 179.02Q359.75 179.02 358.57 179.70Q357.40 180.38 356.62 181.81V179.36H353.90V195.00H356.62V185.48Q356.62 184.32 357.11 183.44Q357.60 182.56 358.50 182.06Q359.41 181.57 360.60 181.57Q362.23 181.57 363.08 182.56Q363.93 183.54 363.93 185.48Z M394.36 179.36H391.30L386.47 191.46L387.59 191.60L382.63 179.36H379.40L385.38 192.79L381.10 202.48H384.16Z M395.55 187.18Q395.55 189.53 396.62 191.38Q397.69 193.23 399.53 194.29Q401.36 195.34 403.64 195.34Q405.95 195.34 407.77 194.29Q409.59 193.23 410.66 191.38Q411.73 189.53 411.73 187.18Q411.73 184.80 410.66 182.96Q409.59 181.13 407.77 180.07Q405.95 179.02 403.64 179.02Q401.36 179.02 399.53 180.07Q397.69 181.13 396.62 182.96Q395.55 184.80 395.55 187.18ZM398.30 187.18Q398.30 185.55 399.00 184.27Q399.70 183.00 400.90 182.28Q402.11 181.57 403.64 181.57Q405.17 181.57 406.38 182.28Q407.58 183.00 408.28 184.27Q408.98 185.55 408.98 187.18Q408.98 188.81 408.28 190.07Q407.58 191.33 406.38 192.06Q405.17 192.79 403.64 192.79Q402.11 192.79 400.90 192.06Q399.70 191.33 399.00 190.07Q398.30 188.81 398.30 187.18Z M418.19 188.88V179.36H415.47V189.22Q415.47 192.01 416.93 193.67Q418.40 195.34 420.84 195.34Q422.41 195.34 423.56 194.64Q424.72 193.95 425.50 192.55V195.00H428.22V179.36H425.50V188.88Q425.50 190.04 425.01 190.92Q424.52 191.80 423.61 192.30Q422.71 192.79 421.52 192.79Q419.89 192.79 419.04 191.77Q418.19 190.75 418.19 188.88Z M436.04 179.36H433.32V195.00H436.04ZM440.77 182.35 442.26 180.11Q441.65 179.46 440.92 179.24Q440.19 179.02 439.34 179.02Q438.25 179.02 437.20 179.87Q436.14 180.72 435.48 182.17Q434.82 183.61 434.82 185.48H436.04Q436.04 184.36 436.26 183.47Q436.48 182.59 437.06 182.08Q437.64 181.57 438.66 181.57Q439.34 181.57 439.78 181.76Q440.22 181.94 440.77 182.35Z M455.18 168.48V195.00H457.90V168.48Z M463.00 172.90Q463.00 173.65 463.56 174.21Q464.13 174.77 464.87 174.77Q465.66 174.77 466.20 174.21Q466.74 173.65 466.74 172.90Q466.74 172.12 466.20 171.57Q465.66 171.03 464.87 171.03Q464.13 171.03 463.56 171.57Q463.00 172.12 463.00 172.90ZM463.51 179.36V195.00H466.23V179.36Z M481.87 185.48V195.00H484.59V185.14Q484.59 182.32 483.15 180.67Q481.70 179.02 479.22 179.02Q477.69 179.02 476.52 179.70Q475.35 180.38 474.56 181.81V179.36H471.84V195.00H474.56V185.48Q474.56 184.32 475.06 183.44Q475.55 182.56 476.45 182.06Q477.35 181.57 478.54 181.57Q480.17 181.57 481.02 182.56Q481.87 183.54 481.87 185.48Z M495.75 195.34Q498.26 195.34 500.11 194.34Q501.97 193.33 503.19 191.36L500.98 189.97Q500.13 191.40 498.91 192.09Q497.68 192.79 496.09 192.79Q494.49 192.79 493.37 192.11Q492.24 191.43 491.67 190.14Q491.09 188.85 491.09 187.01Q491.12 185.21 491.72 183.97Q492.31 182.73 493.42 182.06Q494.52 181.40 496.09 181.40Q497.41 181.40 498.40 181.98Q499.38 182.56 499.94 183.58Q500.51 184.60 500.51 185.99Q500.51 186.23 500.40 186.59Q500.30 186.94 500.20 187.11L501.29 185.55H490.07V187.86H503.43Q503.43 187.79 503.45 187.54Q503.46 187.28 503.46 187.04Q503.46 184.56 502.58 182.76Q501.70 180.96 500.05 179.99Q498.40 179.02 496.09 179.02Q493.77 179.02 492.02 180.04Q490.27 181.06 489.30 182.90Q488.33 184.73 488.33 187.18Q488.33 189.59 489.27 191.43Q490.20 193.27 491.89 194.30Q493.57 195.34 495.75 195.34Z" fill="#3C5766"/>
</svg>